<svg width="24" height="24" viewBox="0 0 24 24" fill="none" xmlns="http://www.w3.org/2000/svg">
<path d="M12 0C5.3832 0 0 5.38327 0 12.0001C0 18.6169 5.3832 24 12 24C18.6168 24 24 18.6169 24 12.0001C24 5.38327 18.6168 0 12 0ZM12 21.8182C6.58618 21.8182 2.18182 17.4138 2.18182 12.0001C2.18182 6.58633 6.58618 2.18182 12 2.18182C17.4138 2.18182 21.8182 6.58633 21.8182 12.0001C21.8182 17.4138 17.4137 21.8182 12 21.8182Z" fill="#0078FF"/>
<path d="M11.9998 5.09082C11.198 5.09082 10.5456 5.74362 10.5456 6.54602C10.5456 7.34769 11.198 7.99991 11.9998 7.99991C12.8017 7.99991 13.4541 7.34769 13.4541 6.54602C13.4541 5.74362 12.8017 5.09082 11.9998 5.09082Z" fill="#0078FF"/>
<path d="M12 10.1819C11.3975 10.1819 10.9091 10.6703 10.9091 11.2728V17.8182C10.9091 18.4207 11.3975 18.9092 12 18.9092C12.6025 18.9092 13.0909 18.4207 13.0909 17.8182V11.2728C13.0909 10.6703 12.6025 10.1819 12 10.1819Z" fill="#0078FF"/>
</svg>
