<svg width="48" height="48" viewBox="0 0 48 48" fill="none" xmlns="http://www.w3.org/2000/svg">
<rect width="48" height="48" rx="4" fill="#E4F1FF"/>
<path d="M23.9472 14.085C23.6688 13.9427 23.3408 13.9804 23.1008 14.1879L15.3184 20.8579H11.6C10.7184 20.8579 10 21.6275 10 22.5721V29.4289C10 30.3735 10.7184 31.1431 11.6 31.1431H15.3184L23.0992 37.8132C23.2448 37.9366 23.4224 38 23.6 38C23.7184 38 23.8368 37.9726 23.9472 37.916C24.224 37.772 24.4 37.472 24.4 37.1429V14.8581C24.4 14.529 24.224 14.229 23.9472 14.085ZM14.8 29.4289H11.6V22.5721H14.8V29.4289ZM22.8 35.3584L16.4 29.8729V22.1281L22.8 16.6426V35.3584Z" fill="#0078FF"/>
<path d="M28.4516 19.9384C28.1364 19.6041 27.6308 19.6092 27.3204 19.9452C27.01 20.2829 27.0132 20.8246 27.3268 21.1572C28.5348 22.4377 29.2004 24.157 29.2004 25.9998C29.2004 27.8426 28.5348 29.562 27.3268 30.8425C27.0116 31.175 27.0084 31.7167 27.3204 32.0544C27.4772 32.2241 27.6836 32.3081 27.8884 32.3081C28.0916 32.3081 28.2948 32.2259 28.4516 32.0596C29.9668 30.4568 30.8004 28.3054 30.8004 25.9998C30.8004 23.6942 29.9668 21.5429 28.4516 19.9384Z" fill="#0078FF"/>
<path d="M30.707 17.5235C30.3934 17.191 29.8862 17.1927 29.5758 17.5287C29.2654 17.8647 29.267 18.4081 29.5806 18.7406C31.3982 20.6725 32.3998 23.2507 32.3998 26.0003C32.3998 28.7499 31.3982 31.3281 29.5806 33.26C29.267 33.5926 29.2654 34.136 29.5758 34.472C29.7326 34.6417 29.9374 34.7257 30.1438 34.7257C30.347 34.7257 30.5502 34.6434 30.707 34.4771C32.8303 32.2212 33.9999 29.211 33.9999 26.0003C33.9999 22.7896 32.8303 19.7794 30.707 17.5235Z" fill="#0078FF"/>
</svg>
