<svg width="32" height="23" viewBox="0 0 32 23" fill="none" xmlns="http://www.w3.org/2000/svg">
<path d="M16.0001 6.03491C13.0919 6.03491 10.7261 8.40087 10.7261 11.3089C10.7261 14.217 13.092 16.5829 16.0001 16.5829C18.9081 16.5829 21.2741 14.217 21.2741 11.3089C21.2741 8.40087 18.9082 6.03491 16.0001 6.03491ZM16.0001 14.0794C14.4724 14.0794 13.2296 12.8365 13.2296 11.3089C13.2296 9.78129 14.4725 8.53839 16.0001 8.53839C17.5277 8.53839 18.7706 9.78129 18.7706 11.3089C18.7706 12.8365 17.5278 14.0794 16.0001 14.0794Z" fill="black"/>
<path d="M6.46132 1.77021L4.69111 0C1.66598 3.02512 0 7.04138 0 11.3089C0 15.5763 1.66598 19.5926 4.69119 22.6177L6.4614 20.8475C3.90902 18.2952 2.50348 14.9076 2.50348 11.3089C2.50348 7.71014 3.90902 4.32251 6.46132 1.77021Z" fill="black"/>
<path d="M27.3089 0L25.5387 1.77021C28.091 4.32251 29.4965 7.71014 29.4965 11.3089C29.4965 14.9076 28.0909 18.2952 25.5386 20.8475L27.3088 22.6177C30.3339 19.5926 32 15.5763 32 11.3089C32 7.04138 30.334 3.02512 27.3089 0Z" fill="black"/>
<path d="M23.5183 3.79053L21.7481 5.56074C23.2864 7.09896 24.1334 9.14038 24.1334 11.3089C24.1334 13.4774 23.2864 15.5188 21.748 17.0571L23.5183 18.8273C25.5294 16.8161 26.6369 14.1461 26.6369 11.3089C26.637 8.47162 25.5295 5.80157 23.5183 3.79053Z" fill="black"/>
<path d="M10.2519 5.56074L8.48171 3.79053C6.47058 5.80157 5.36304 8.47162 5.36304 11.3089C5.36304 14.1461 6.47058 16.8162 8.48162 18.8273L10.2519 17.0571C8.71361 15.5188 7.86652 13.4774 7.86652 11.3089C7.86652 9.14038 8.7137 7.09896 10.2519 5.56074Z" fill="black"/>
</svg>
