<svg width="32" height="30" viewBox="0 0 32 30" fill="none" xmlns="http://www.w3.org/2000/svg">
<path d="M18.5963 0.105779C18.2251 -0.0712874 17.7877 -0.0243541 17.4677 0.233779L7.0912 8.53458H2.13333C0.957867 8.53458 0 9.49245 0 10.6679V19.2012C0 20.3767 0.957867 21.3346 2.13333 21.3346H7.0912L17.4656 29.6354C17.6597 29.789 17.8965 29.8679 18.1333 29.8679C18.2912 29.8679 18.4491 29.8338 18.5963 29.7634C18.9653 29.5842 19.2 29.2108 19.2 28.8012V1.06791C19.2 0.658312 18.9653 0.284979 18.5963 0.105779ZM6.4 19.2012H2.13333V10.6679H6.4V19.2012ZM17.0667 26.5804L8.53333 19.7538V10.1154L17.0667 3.28871V26.5804Z" fill="black"/>
<path d="M24.6016 7.39108C24.1813 6.97508 23.5072 6.98148 23.0933 7.39961C22.6794 7.81988 22.6837 8.49401 23.1018 8.90788C24.7125 10.5015 25.6 12.6412 25.6 14.9345C25.6 17.2279 24.7125 19.3676 23.1018 20.9612C22.6816 21.3751 22.6773 22.0492 23.0933 22.4695C23.3024 22.6807 23.5776 22.7852 23.8506 22.7852C24.1216 22.7852 24.3925 22.6828 24.6016 22.4759C26.6218 20.4812 27.7333 17.8039 27.7333 14.9345C27.7333 12.0652 26.6218 9.38788 24.6016 7.39108Z" fill="black"/>
<path d="M27.6097 4.38522C27.1915 3.97136 26.5153 3.97349 26.1014 4.39162C25.6875 4.80976 25.6897 5.48602 26.1078 5.89989C28.5313 8.30416 29.8667 11.5127 29.8667 14.9346C29.8667 18.3564 28.5313 21.565 26.1078 23.9692C25.6897 24.3831 25.6875 25.0594 26.1014 25.4775C26.3105 25.6887 26.5835 25.7932 26.8587 25.7932C27.1297 25.7932 27.4006 25.6908 27.6097 25.4839C30.4406 22.6764 32.0001 18.9303 32.0001 14.9346C32.0001 10.9388 30.4406 7.19269 27.6097 4.38522Z" fill="black"/>
</svg>
