<svg width="30" height="32" viewBox="0 0 30 32" fill="none" xmlns="http://www.w3.org/2000/svg">
<path d="M27.989 8.69133L30 0L21.7543 2.0277L14.965 10.657L8.15712 2.04798L0 0.00366497L1.91849 8.70818L10.4517 16.3934L8.69453 18.6265L7.50916 17.3612L6.26747 18.6869L7.50916 20.0124L3.29498 24.511C2.47124 24.5662 1.66237 24.9283 1.03409 25.599C-0.335312 27.0606 -0.335312 29.4391 1.03409 30.901C2.40349 32.3628 4.63165 32.363 6.00105 30.901C6.6291 30.2305 6.96831 29.3671 7.02026 28.4875L11.2344 23.9889L12.4761 25.3144L13.7178 23.9889L12.5285 22.7193L14.9867 20.4888L17.4518 22.7203L16.2634 23.9889L17.5051 25.3144L18.7468 23.9889L22.9591 28.4855C23.0118 29.3981 23.3691 30.2489 23.9802 30.901C25.3526 32.3662 27.5743 32.3665 28.9471 30.901C30.3195 29.436 30.32 27.0642 28.9471 25.5988C28.336 24.9466 27.5393 24.565 26.6842 24.5088L22.4721 20.0121L23.7138 18.6866L22.4721 17.3612L21.284 18.6292L19.5065 16.388L27.989 8.69133ZM22.4721 22.6634L21.2304 23.9891L19.9885 22.6636L21.2304 21.3379L22.4721 22.6634ZM23.4375 26.3452L22.4721 25.3146L23.7138 23.9889L24.6792 25.0194C24.4274 25.1785 24.1926 25.3723 23.9802 25.599C23.7678 25.8255 23.5865 26.0764 23.4375 26.3452ZM27.7052 29.5755C27.019 30.308 25.9083 30.3082 25.2219 29.5755C24.5357 28.843 24.5357 27.6572 25.2219 26.9245C25.9083 26.192 27.019 26.1917 27.7052 26.9245C28.3916 27.6572 28.3916 28.8427 27.7052 29.5755ZM3.4948 7.6754L2.35863 2.52051L7.19009 3.73117L13.8187 12.1137L11.5812 14.9579L3.4948 7.6754ZM6.00105 25.599C5.78682 25.3701 5.55153 25.1773 5.30159 25.0202L6.26747 23.9889L7.50938 25.3146L6.5435 26.3457C6.3961 26.0789 6.21529 25.8277 6.00105 25.599ZM7.50916 22.6634L8.75084 21.3379L9.99275 22.6634L8.75107 23.9889L7.50916 22.6634ZM4.75937 29.5755C4.07478 30.3063 2.96059 30.3063 2.27577 29.5755C1.59119 28.8447 1.59119 27.6553 2.27577 26.9245C2.96059 26.1935 4.07455 26.1935 4.75937 26.9245C5.44395 27.6553 5.44395 28.8447 4.75937 29.5755ZM9.94102 19.9572L22.7211 3.71382L27.61 2.51147L26.4201 7.65463L11.2827 21.3894L9.94102 19.9572ZM20.0379 19.9596L18.6978 21.3902L16.3426 19.2586L18.1684 17.6021L20.0379 19.9596Z" fill="black"/>
</svg>
