<svg width="32" height="32" viewBox="0 0 32 32" fill="none" xmlns="http://www.w3.org/2000/svg">
<path d="M20 27H4C1.7944 27 0 25.3177 0 23.25V3.75C0 1.68225 1.7944 0 4 0H17.3333C18.4017 0 19.4062 0.390063 20.1617 1.09831C20.1617 1.09831 20.1617 1.09831 20.1618 1.09837L22.8285 3.59838C23.5839 4.30669 24 5.24837 24 6.25V23.25C24 25.3177 22.2056 27 20 27ZM4 2.5C3.2648 2.5 2.66667 3.06075 2.66667 3.75V23.25C2.66667 23.9393 3.2648 24.5 4 24.5H20C20.7352 24.5 21.3333 23.9393 21.3333 23.25V6.25C21.3333 5.91612 21.1947 5.60219 20.9428 5.36613L18.2761 2.86613C18.0242 2.63 17.6895 2.5 17.3333 2.5H4Z" fill="black"/>
<path d="M28.0001 32.0001H12.0001C11.2637 32.0001 10.6667 31.4404 10.6667 30.7501C10.6667 30.0597 11.2637 29.5001 12.0001 29.5001H28.0001C28.7353 29.5001 29.3334 28.9393 29.3334 28.2501V11.2501C29.3334 10.9162 29.1947 10.6022 28.9429 10.3662L27.0574 8.59849C26.5366 8.1103 26.5365 7.31887 27.0573 6.83074C27.578 6.34255 28.4222 6.34255 28.9429 6.83074L30.8285 8.59849C31.584 9.30674 32.0001 10.2484 32.0001 11.2501V28.2501C32.0001 30.3178 30.2057 32.0001 28.0001 32.0001Z" fill="black"/>
<path d="M17.3333 10H6.66659C5.93019 10 5.33325 9.44037 5.33325 8.75C5.33325 8.05963 5.93019 7.5 6.66659 7.5H17.3333C18.0697 7.5 18.6666 8.05963 18.6666 8.75C18.6666 9.44037 18.0697 10 17.3333 10Z" fill="black"/>
<path d="M17.3333 15H6.66659C5.93019 15 5.33325 14.4404 5.33325 13.75C5.33325 13.0596 5.93019 12.5 6.66659 12.5H17.3333C18.0697 12.5 18.6666 13.0596 18.6666 13.75C18.6666 14.4404 18.0697 15 17.3333 15Z" fill="black"/>
<path d="M11.9999 20H6.66659C5.93019 20 5.33325 19.4404 5.33325 18.75C5.33325 18.0596 5.93019 17.5 6.66659 17.5H11.9999C12.7363 17.5 13.3333 18.0596 13.3333 18.75C13.3333 19.4404 12.7363 20 11.9999 20Z" fill="black"/>
</svg>
