<svg width="29" height="32" viewBox="0 0 29 32" fill="none" xmlns="http://www.w3.org/2000/svg">
<path d="M20.3682 13.75C20.3682 13.0596 19.8085 12.5 19.1182 12.5H6.24316C5.55279 12.5 4.99316 13.0596 4.99316 13.75C4.99316 14.4404 5.55279 15 6.24316 15H19.1182C19.8085 15 20.3682 14.4404 20.3682 13.75Z" fill="black"/>
<path d="M6.24316 17.5C5.55279 17.5 4.99316 18.0596 4.99316 18.75C4.99316 19.4404 5.55279 20 6.24316 20H14.0626C14.753 20 15.3126 19.4404 15.3126 18.75C15.3126 18.0596 14.753 17.5 14.0626 17.5H6.24316Z" fill="black"/>
<path d="M9.18056 29.5H5C3.6215 29.5 2.5 28.3785 2.5 27V5C2.5 3.6215 3.6215 2.5 5 2.5H20.3681C21.7466 2.5 22.8681 3.6215 22.8681 5V12.6875C22.8681 13.3779 23.4277 13.9375 24.1181 13.9375C24.8084 13.9375 25.3681 13.3779 25.3681 12.6875V5C25.3681 2.243 23.1251 0 20.3681 0H5C2.243 0 0 2.243 0 5V27C0 29.757 2.243 32 5 32H9.18056C9.87094 32 10.4306 31.4404 10.4306 30.75C10.4306 30.0596 9.87094 29.5 9.18056 29.5Z" fill="black"/>
<path d="M27.5821 18.0982C26.12 16.6361 23.741 16.636 22.2798 18.0972L15.4171 24.9447C15.2714 25.0901 15.1639 25.2693 15.104 25.4663L13.6094 30.3866C13.4769 30.8228 13.5924 31.2965 13.9107 31.6228C14.1492 31.8673 14.4732 32 14.8055 32C14.9167 32 15.029 31.9851 15.1392 31.9545L20.1845 30.557C20.3921 30.4995 20.5814 30.3893 20.7339 30.237L27.5822 23.4016C29.0443 21.9395 29.0443 19.5605 27.5821 18.0982ZM19.2004 28.2355L16.6621 28.9386L17.4049 26.493L22.0355 21.8727L23.8036 23.6408L19.2004 28.2355ZM25.8153 21.6331L25.5731 21.8748L23.8053 20.107L24.0467 19.8661C24.534 19.3787 25.327 19.3787 25.8144 19.8661C26.3018 20.3535 26.3018 21.1465 25.8153 21.6331Z" fill="black"/>
<path d="M19.1182 7.5H6.24316C5.55279 7.5 4.99316 8.05963 4.99316 8.75C4.99316 9.44037 5.55279 10 6.24316 10H19.1182C19.8085 10 20.3682 9.44037 20.3682 8.75C20.3682 8.05963 19.8085 7.5 19.1182 7.5Z" fill="black"/>
</svg>
