<svg width="26" height="32" viewBox="0 0 26 32" fill="none" xmlns="http://www.w3.org/2000/svg">
<path d="M16.4849 0H3.75C1.68225 0 0 1.68225 0 3.75V28.25C0 30.3177 1.68225 32 3.75 32H21.6181C23.6858 32 25.3681 30.3177 25.3681 28.25V8.9285L16.4849 0ZM17.1804 4.24375L21.1111 8.19444H18.4304C17.7412 8.19444 17.1804 7.63369 17.1804 6.94444V4.24375ZM22.8681 28.25C22.868 28.9393 22.3073 29.5 21.618 29.5H3.75C3.06075 29.5 2.5 28.9393 2.5 28.25V3.75C2.5 3.06075 3.06075 2.5 3.75 2.5H14.6806V6.94444C14.6806 9.01219 16.3628 10.6944 18.4306 10.6944H22.8681V28.25Z" fill="black"/>
</svg>
