<svg width="32" height="32" viewBox="0 0 32 32" fill="none" xmlns="http://www.w3.org/2000/svg">
<path d="M31.6932 9.41697L23.2473 0.379394C23.024 0.140869 22.6716 0 22.2967 0C21.9219 0 21.5692 0.140869 21.3465 0.379394L12.9007 9.41697C12.6348 9.70138 12.5939 10.0806 12.795 10.3967C12.9959 10.7129 13.4045 10.9126 13.8512 10.9126H16.8912V15.4438C16.2958 15.2007 15.6216 15.0625 14.9067 15.0625H12.7954C10.3968 15.0625 8.44559 16.6091 8.44559 18.5103V20.4646C7.8502 20.2215 7.17568 20.0832 6.4611 20.0832H4.3497C1.95124 20.0832 0 21.6301 0 23.5312V26V28.125V29.9755V32H26.5196C27.1729 32 27.7024 31.5803 27.7024 31.0625V10.9126H30.7427C31.1892 10.9126 31.598 10.7129 31.7989 10.3967C31.9999 10.0806 31.959 9.70138 31.6932 9.41697ZM2.3652 28.552V23.5312C2.3652 22.6639 3.25534 22.1078 4.3497 22.1078H6.4611C7.55511 22.1078 8.44529 22.6639 8.44529 23.5312V29.9755H2.3652V28.552ZM10.8111 23.5312V18.5103C10.8111 17.6431 11.7012 17.087 12.7954 17.087H14.9067C16.0007 17.087 16.8912 17.6431 16.8912 18.5103V29.9755H10.8111V23.5312ZM26.5196 9.03761C25.8663 9.03761 25.3368 9.45727 25.3368 9.9751V29.9755H19.2567V9.9751C19.2567 9.45727 18.7269 9.03761 18.0739 9.03761H16.1991L22.2967 2.51245L28.3947 9.03761H26.5196Z" fill="black"/>
</svg>
