<svg width="32" height="32" viewBox="0 0 32 32" fill="none" xmlns="http://www.w3.org/2000/svg">
<path d="M31.1092 21.2638C31.6853 19.6145 31.9997 17.8434 31.9997 16C31.9997 14.1566 31.6853 12.3855 31.1092 10.7362C31.0951 10.6867 31.0784 10.6384 31.0583 10.5919C28.8359 4.42294 22.9251 0 15.9998 0C9.07462 0 3.16361 4.42294 0.941437 10.5919C0.921254 10.6385 0.904434 10.6867 0.89052 10.7362C0.314373 12.3855 0 14.1566 0 16C0 17.8434 0.314373 19.6145 0.89052 21.2638C0.904587 21.3133 0.921254 21.3616 0.941437 21.4081C3.16376 27.5772 9.07462 32 15.9998 32C22.9251 32 28.8359 27.5771 31.0583 21.4081C31.0784 21.3616 31.0951 21.3135 31.1092 21.2638ZM15.9998 29.7066C15.3905 29.7066 14.4081 28.6038 13.587 26.1402C13.1907 24.9514 12.8734 23.5847 12.6422 22.098H19.3575C19.1263 23.5847 18.809 24.9512 18.4128 26.1402C17.5916 28.6038 16.6092 29.7066 15.9998 29.7066ZM12.3639 19.8044C12.2537 18.5815 12.1954 17.3057 12.1954 16C12.1954 14.6943 12.2537 13.4185 12.3639 12.1956H19.6356C19.7459 13.4185 19.8041 14.6943 19.8041 16C19.8041 17.3057 19.7459 18.5815 19.6356 19.8044H12.3639ZM2.29343 16.0002C2.29343 14.6806 2.48135 13.4041 2.83104 12.1957H10.0635C9.95627 13.4439 9.90184 14.7231 9.90184 16.0002C9.90184 17.2772 9.95612 18.5564 10.0635 19.8046H2.83104C2.48135 18.596 2.29343 17.3197 2.29343 16.0002ZM15.9998 2.29358C16.6092 2.29358 17.5917 3.39633 18.4128 5.85994C18.809 7.04878 19.1265 8.41544 19.3575 9.90199H12.642C12.8732 8.41529 13.1905 7.04878 13.5869 5.85994C14.4081 3.39633 15.3905 2.29358 15.9998 2.29358ZM21.9361 12.1957H29.1685C29.5182 13.4041 29.7061 14.6806 29.7061 16.0002C29.7061 17.3197 29.5182 18.5962 29.1685 19.8046H21.9361C22.0433 18.5564 22.0977 17.2772 22.0977 16.0002C22.0977 14.7231 22.0433 13.4439 21.9361 12.1957ZM28.2723 9.90214H21.6729C21.265 7.08914 20.5651 4.56544 19.5833 2.77003C23.3899 3.80199 26.5436 6.4367 28.2723 9.90214ZM12.4162 2.76988C11.4344 4.56529 10.7346 7.08899 10.3266 9.90214H3.72722C5.45612 6.4367 8.60963 3.80199 12.4162 2.76988ZM3.72722 22.098H10.3266C10.7346 24.911 11.4344 27.4347 12.4162 29.2303C8.60963 28.1982 5.45612 25.5636 3.72722 22.098ZM19.5833 29.2303C20.5651 27.4349 21.265 24.9112 21.6729 22.098H28.2723C26.5436 25.5636 23.3899 28.1982 19.5833 29.2303Z" fill="black"/>
</svg>
