<svg width="32" height="28" viewBox="0 0 32 28" fill="none" xmlns="http://www.w3.org/2000/svg">
<path d="M28.1045 4.26667H23.5243L22.9909 2.66667C22.7339 1.88978 22.2383 1.2138 21.5746 0.735C20.911 0.2562 20.1132 -0.00100904 19.2949 2.97496e-06H12.7051C11.887 -0.000622147 11.0895 0.256754 10.4261 0.735515C9.76278 1.21428 9.26727 1.89004 9.01013 2.66667L8.47573 4.26667H3.89547C2.86267 4.2678 1.8725 4.67858 1.1422 5.40887C0.411906 6.13917 0.00112936 7.12934 0 8.16214V23.8421C0.00225772 24.8742 0.413533 25.8633 1.14371 26.5926C1.87388 27.322 2.86341 27.7322 3.89547 27.7333H28.1088C29.1409 27.7311 30.1299 27.3198 30.8593 26.5896C31.5887 25.8595 31.9989 24.8699 32 23.8379V8.15787C31.9977 7.12581 31.5865 6.13674 30.8563 5.40736C30.1261 4.67799 29.1366 4.2678 28.1045 4.26667ZM29.8667 23.8379C29.8661 24.305 29.6803 24.7529 29.3499 25.0833C29.0196 25.4136 28.5717 25.5994 28.1045 25.6H3.89547C3.42829 25.5994 2.98042 25.4136 2.65007 25.0833C2.31973 24.7529 2.1339 24.305 2.13333 23.8379V8.15787C2.13503 7.69144 2.32136 7.24465 2.65158 6.91523C2.9818 6.58581 3.42903 6.40056 3.89547 6.4H9.2448C9.46858 6.39983 9.68664 6.32929 9.86811 6.19835C10.0496 6.06741 10.1853 5.88272 10.256 5.6704L11.0336 3.3376C11.1504 2.98672 11.3747 2.68154 11.6747 2.46536C11.9748 2.24919 12.3353 2.13302 12.7051 2.13334H19.2949C19.6649 2.13293 20.0256 2.2492 20.3257 2.46559C20.6257 2.68199 20.85 2.9875 20.9664 3.33867L21.744 5.6704C21.8147 5.88272 21.9504 6.06741 22.1319 6.19835C22.3134 6.32929 22.5314 6.39983 22.7552 6.4H28.1045C28.5717 6.40057 29.0196 6.5864 29.3499 6.91674C29.6803 7.24709 29.8661 7.69496 29.8667 8.16214V23.8379Z" fill="black"/>
<path d="M16 7.46667C14.4178 7.46667 12.871 7.93587 11.5554 8.81492C10.2398 9.69397 9.21447 10.9434 8.60897 12.4052C8.00347 13.867 7.84504 15.4755 8.15372 17.0274C8.4624 18.5792 9.22433 20.0047 10.3431 21.1235C11.462 22.2423 12.8874 23.0043 14.4393 23.313C15.9911 23.6216 17.5997 23.4632 19.0615 22.8577C20.5233 22.2522 21.7727 21.2268 22.6518 19.9112C23.5308 18.5956 24 17.0489 24 15.4667C23.9977 13.3456 23.1542 11.3121 21.6544 9.81232C20.1546 8.31251 18.121 7.46893 16 7.46667ZM16 21.3333C14.8397 21.3333 13.7054 20.9893 12.7407 20.3446C11.7759 19.7 11.0239 18.7837 10.5799 17.7118C10.1359 16.6398 10.0197 15.4602 10.2461 14.3221C10.4724 13.1841 11.0312 12.1388 11.8516 11.3183C12.6721 10.4978 13.7175 9.9391 14.8555 9.71273C15.9935 9.48637 17.1731 9.60255 18.2451 10.0466C19.3171 10.4906 20.2333 11.2426 20.878 12.2073C21.5226 13.1721 21.8667 14.3064 21.8667 15.4667C21.865 17.0221 21.2463 18.5133 20.1465 19.6132C19.0466 20.713 17.5554 21.3316 16 21.3333Z" fill="black"/>
<path d="M26.6668 10.6667C27.2559 10.6667 27.7334 10.1891 27.7334 9.59999C27.7334 9.01089 27.2559 8.53333 26.6668 8.53333C26.0777 8.53333 25.6001 9.01089 25.6001 9.59999C25.6001 10.1891 26.0777 10.6667 26.6668 10.6667Z" fill="black"/>
</svg>
