<svg width="32" height="31" viewBox="0 0 32 31" fill="none" xmlns="http://www.w3.org/2000/svg">
<path d="M4.37109 4.99536C4.37109 4.30566 4.93018 3.74658 5.61987 3.74658C6.30957 3.74658 6.86865 4.30566 6.86865 4.99536C6.86865 5.6853 6.30957 6.24438 5.61987 6.24438C4.93018 6.24438 4.37109 5.6853 4.37109 4.99536ZM9.99097 6.24438C10.6807 6.24438 11.2397 5.6853 11.2397 4.99536C11.2397 4.30566 10.6807 3.74658 9.99097 3.74658C9.30127 3.74658 8.74194 4.30566 8.74194 4.99536C8.74194 5.6853 9.30127 6.24438 9.99097 6.24438ZM32 25.5969L26.6931 30.916L18.0664 22.5259C17.5837 22.043 17.2151 21.4451 17.0007 20.7969L16.9812 20.7378L15.6462 14.7751L21.593 16.1274L21.6501 16.1465C22.2952 16.3601 22.8904 16.7266 23.3721 17.2063L32 25.5969ZM28.4451 25.6238L21.6121 18.9785C21.5645 18.9309 21.5142 18.8857 21.4614 18.8435L19.6963 20.6074C19.7375 20.6589 19.7812 20.708 19.8276 20.7549L26.6667 27.406L28.4451 25.6238ZM19.4199 27.4751L21.988 29.9727H3.74658C1.68066 29.9727 0 28.292 0 26.2261V3.74658C0 1.68066 1.68066 0 3.74658 0H28.2244C30.2903 0 31.9709 1.68066 31.9709 3.74658V21.9597L29.4731 19.5308V9.99097H2.4978V26.2261C2.4978 26.9148 3.05786 27.4751 3.74658 27.4751H19.4199ZM2.4978 3.74658V7.49316H29.4731V3.74658C29.4731 3.05786 28.9128 2.4978 28.2244 2.4978H3.74658C3.05786 2.4978 2.4978 3.05786 2.4978 3.74658Z" fill="black"/>
</svg>
