<svg width="32" height="32" viewBox="0 0 32 32" fill="none" xmlns="http://www.w3.org/2000/svg">
<path d="M24.2891 32C23.8684 32.0003 23.454 31.8932 23.0822 31.688L16.1741 27.9029C16.1206 27.873 16.0608 27.8574 16.0001 27.8574C15.9394 27.8574 15.8796 27.873 15.8261 27.9029L8.91909 31.688C8.49107 31.9228 8.00856 32.0281 7.52614 31.9918C7.04373 31.9556 6.58067 31.7793 6.18937 31.483C5.79807 31.1866 5.49414 30.782 5.31197 30.3149C5.12981 29.8478 5.07668 29.3368 5.1586 28.8399L6.47749 20.8224C6.48762 20.7596 6.48282 20.6951 6.46349 20.6347C6.44417 20.5743 6.41092 20.5197 6.36666 20.4758L0.782992 14.7945C0.436315 14.4424 0.191165 13.9961 0.0753179 13.5062C-0.0405289 13.0163 -0.0224411 12.5023 0.127532 12.0226C0.277505 11.5428 0.553368 11.1165 0.923864 10.7918C1.29436 10.4671 1.74468 10.2571 2.22379 10.1855L9.94095 9.01741C10.001 9.0083 10.058 8.98408 10.1071 8.94684C10.1561 8.90959 10.1957 8.86045 10.2225 8.80366L13.6726 1.50714C13.8863 1.05482 14.2172 0.673904 14.6279 0.40754C15.0386 0.141175 15.5126 0 15.9962 0C16.4799 0 16.9538 0.141175 17.3645 0.40754C17.7752 0.673904 18.1061 1.05482 18.3198 1.50714L21.7722 8.80135C21.7991 8.85796 21.8388 8.90695 21.8878 8.94416C21.9368 8.98138 21.9937 9.00571 22.0537 9.0151L29.7775 10.1844C30.2564 10.2564 30.7064 10.4666 31.0766 10.7913C31.4468 11.1161 31.7225 11.5423 31.8724 12.0219C32.0223 12.5015 32.0405 13.0152 31.9249 13.505C31.8093 13.9948 31.5645 14.4411 31.2183 14.7934L25.6291 20.4712C25.585 20.5152 25.5518 20.5698 25.5325 20.6302C25.5132 20.6906 25.5083 20.755 25.5182 20.8178L26.8371 28.8353C26.9006 29.2227 26.8823 29.6198 26.7835 29.9991C26.6848 30.3784 26.5079 30.7307 26.2653 31.0314C26.0227 31.3322 25.7201 31.5743 25.3786 31.7407C25.0372 31.9072 24.665 31.9941 24.288 31.9954L24.2891 32ZM16.0001 25.5458C16.4204 25.5457 16.8344 25.6528 17.2059 25.8578L24.1129 29.6418C24.174 29.6782 24.2442 29.6949 24.3144 29.6898C24.3846 29.6846 24.4518 29.6579 24.5075 29.6129C24.5655 29.5714 24.6107 29.513 24.6372 29.445C24.6638 29.3771 24.6707 29.3025 24.6571 29.2304L23.3371 21.2118C23.2666 20.7802 23.2975 20.3373 23.4272 19.9209C23.5569 19.5046 23.7816 19.1272 24.0819 18.8212L29.6711 13.1423C29.721 13.0913 29.7562 13.0269 29.7728 12.9562C29.7895 12.8854 29.7868 12.8113 29.7651 12.7421C29.7434 12.6729 29.7036 12.6113 29.6502 12.5645C29.5968 12.5176 29.5318 12.4872 29.4627 12.4768L21.74 11.3063C21.3242 11.2436 20.9294 11.0762 20.5895 10.8187C20.2497 10.5613 19.9751 10.2214 19.7894 9.82852L16.3326 2.53316C16.3016 2.46787 16.2538 2.41291 16.1944 2.37448C16.1351 2.33605 16.0666 2.31569 15.9968 2.31569C15.9269 2.31569 15.8584 2.33605 15.7991 2.37448C15.7397 2.41291 15.6919 2.46787 15.6609 2.53316L12.2108 9.82621C12.025 10.2192 11.7502 10.5592 11.4102 10.8167C11.0701 11.0742 10.675 11.2414 10.259 11.304L2.53745 12.4768C2.46819 12.487 2.40307 12.5173 2.34951 12.5642C2.29596 12.6111 2.25611 12.6727 2.23451 12.7421C2.21291 12.8114 2.21043 12.8857 2.22734 12.9565C2.24426 13.0272 2.2799 13.0916 2.33019 13.1423L7.91829 18.8212C8.21859 19.1272 8.44323 19.5046 8.57294 19.9209C8.70266 20.3373 8.73359 20.7802 8.66307 21.2118L7.34308 29.2304C7.3311 29.3025 7.33877 29.3766 7.3652 29.4443C7.39163 29.512 7.43576 29.5707 7.49258 29.6135C7.5494 29.6564 7.61662 29.6818 7.68659 29.6867C7.75656 29.6917 7.82647 29.6762 7.88837 29.6418L14.7942 25.8566C15.166 25.6525 15.5799 25.5458 16.0001 25.5458Z" fill="black"/>
</svg>
