<svg width="32" height="32" viewBox="0 0 32 32" fill="none" xmlns="http://www.w3.org/2000/svg">
<path d="M26.0487 0H5.95125C2.66606 0.0038125 0.0038125 2.66606 0 5.95125V26.0487C0.0038125 29.3339 2.66606 31.9962 5.95125 32H26.0487C29.3339 31.9962 31.9962 29.3339 32 26.0487V5.95125C31.9962 2.66606 29.3339 0.0038125 26.0487 0ZM29.7909 5.95125V7.88069H24.1947L20.0094 2.20906H26.0488C28.1146 2.21137 29.7886 3.88544 29.7909 5.95125ZM17.2639 2.20906L21.4492 7.88069H14.7361L10.5507 2.20906H17.2639ZM2.20906 5.95125C2.21137 3.8855 3.88544 2.21144 5.95125 2.20906H7.80531L11.9907 7.88069H2.20906V5.95125ZM26.0487 29.7909H5.95125C3.8855 29.7886 2.21144 28.1146 2.20906 26.0487V10.0898H29.7909V26.0487C29.7886 28.1145 28.1145 29.7886 26.0487 29.7909Z" fill="black"/>
<path d="M21.8931 18.9838L13.1546 13.9387C12.6263 13.6337 11.9508 13.8147 11.6458 14.343C11.5489 14.5109 11.4978 14.7014 11.4978 14.8953V24.9856C11.4978 25.5956 11.9923 26.0902 12.6023 26.0902C12.7962 26.0902 12.9867 26.0392 13.1546 25.9422L21.8931 20.897C22.4214 20.592 22.6024 19.9165 22.2974 19.3882C22.2004 19.2202 22.0609 19.0807 21.8931 18.9838ZM13.7069 23.0725V16.8084L19.1317 19.9404L13.7069 23.0725Z" fill="black"/>
</svg>
