<svg width="32" height="22" viewBox="0 0 32 22" fill="none" xmlns="http://www.w3.org/2000/svg">
<path d="M30.2181 2.2438C29.7345 1.98282 29.1884 1.85992 28.6396 1.88856C28.0908 1.91719 27.5605 2.09625 27.1067 2.40614L21.3329 6.28084V3.19994C21.332 2.35156 20.9945 1.5382 20.3946 0.9383C19.7947 0.338403 18.9814 0.000959868 18.133 0H3.19994C2.35156 0.000959868 1.5382 0.338403 0.9383 0.9383C0.338403 1.5382 0.000959868 2.35156 0 3.19994V18.133C0.000959868 18.9814 0.338403 19.7947 0.9383 20.3946C1.5382 20.9945 2.35156 21.332 3.19994 21.3329H18.133C18.9814 21.332 19.7947 20.9945 20.3946 20.3946C20.9945 19.7947 21.332 18.9814 21.3329 18.133V15.0519L27.1077 18.9268C27.5605 19.2387 28.0909 19.4191 28.6399 19.4477C29.189 19.4764 29.7353 19.3523 30.2181 19.0891C30.7678 18.7838 31.2241 18.3346 31.5379 17.7896C31.8517 17.2447 32.0113 16.6246 31.9994 15.9958V5.3375C32.0113 4.70869 31.8518 4.08849 31.538 3.54346C31.2242 2.99843 30.7679 2.54914 30.2181 2.2438ZM19.1996 18.133C19.1993 18.4158 19.0868 18.6869 18.8868 18.8868C18.6869 19.0868 18.4158 19.1993 18.133 19.1996H3.19994C2.91715 19.1993 2.64604 19.0868 2.44608 18.8868C2.24612 18.6869 2.13363 18.4158 2.13329 18.133V3.19994C2.13363 2.91715 2.24612 2.64604 2.44608 2.44608C2.64604 2.24612 2.91715 2.13363 3.19994 2.13329H18.133C18.4158 2.13363 18.6869 2.24612 18.8868 2.44608C19.0868 2.64604 19.1993 2.91715 19.1996 3.19994V18.133ZM29.8661 15.9954C29.8776 16.2377 29.823 16.4785 29.7081 16.6921C29.5932 16.9057 29.4224 17.084 29.2139 17.208C29.0721 17.2882 28.9103 17.3259 28.7476 17.3166C28.585 17.3074 28.4284 17.2516 28.2966 17.1559L21.3329 12.4832V8.84975L28.2953 4.17784C28.428 4.08353 28.5846 4.02861 28.7471 4.0194C28.9096 4.0102 29.0715 4.04707 29.2139 4.12579C29.4223 4.24965 29.593 4.42784 29.7079 4.64128C29.8228 4.85472 29.8775 5.09537 29.8661 5.3375V15.9954Z" fill="black"/>
</svg>
