<svg width="22" height="24" viewBox="0 0 22 24" fill="none" xmlns="http://www.w3.org/2000/svg">
<path d="M15.2762 10.3125C15.2762 9.79471 14.8565 9.37499 14.3387 9.37499H4.6825C4.16471 9.37499 3.745 9.79471 3.745 10.3125C3.745 10.8303 4.16471 11.25 4.6825 11.25H14.3387C14.8565 11.25 15.2762 10.8303 15.2762 10.3125Z" fill="#888888"/>
<path d="M4.6825 13.125C4.16471 13.125 3.745 13.5448 3.745 14.0625C3.745 14.5803 4.16471 15 4.6825 15H10.5471C11.0649 15 11.4846 14.5803 11.4846 14.0625C11.4846 13.5448 11.0649 13.125 10.5471 13.125H4.6825Z" fill="#888888"/>
<path d="M6.88542 22.125H3.75C2.71613 22.125 1.875 21.2839 1.875 20.25V3.75C1.875 2.71613 2.71613 1.875 3.75 1.875H15.276C16.3099 1.875 17.151 2.71613 17.151 3.75V9.51562C17.151 10.0334 17.5708 10.4531 18.0885 10.4531C18.6063 10.4531 19.026 10.0334 19.026 9.51562V3.75C19.026 1.68225 17.3438 0 15.276 0H3.75C1.68225 0 0 1.68225 0 3.75V20.25C0 22.3177 1.68225 24 3.75 24H6.88542C7.4032 24 7.82292 23.5803 7.82292 23.0625C7.82292 22.5447 7.4032 22.125 6.88542 22.125Z" fill="#888888"/>
<path d="M20.6869 13.5737C19.5903 12.4771 17.806 12.477 16.7101 13.5729L11.5631 18.7085C11.4538 18.8176 11.3732 18.952 11.3283 19.0997L10.2074 22.7899C10.108 23.1171 10.1946 23.4724 10.4334 23.7171C10.6122 23.9005 10.8552 24 11.1045 24C11.1879 24 11.272 23.9888 11.3547 23.9659L15.1387 22.9177C15.2944 22.8746 15.4363 22.792 15.5507 22.6778L20.6869 17.5512C21.7835 16.4546 21.7835 14.6704 20.6869 13.5737ZM14.4006 21.1766L12.4969 21.7039L13.054 19.8698L16.5269 16.4045L17.853 17.7306L14.4006 21.1766ZM19.3618 16.2248L19.1801 16.4061L17.8543 15.0802L18.0353 14.8996C18.4008 14.534 18.9956 14.534 19.3611 14.8996C19.7266 15.2651 19.7266 15.8599 19.3618 16.2248Z" fill="#888888"/>
<path d="M14.3387 5.62495H4.6825C4.16471 5.62495 3.745 6.04467 3.745 6.56245C3.745 7.08024 4.16471 7.49995 4.6825 7.49995H14.3387C14.8565 7.49995 15.2762 7.08024 15.2762 6.56245C15.2762 6.04467 14.8565 5.62495 14.3387 5.62495Z" fill="#888888"/>
</svg>
