<svg width="26" height="24" viewBox="0 0 26 24" fill="none" xmlns="http://www.w3.org/2000/svg">
<path d="M14.9428 0.0849976C14.6445 -0.0572822 14.2931 -0.0195694 14.036 0.18785L5.69805 6.85786H1.71421C0.769682 6.85786 0 7.62754 0 8.57207V15.4289C0 16.3735 0.769682 17.1431 1.71421 17.1431H5.69805L14.0343 23.8132C14.1903 23.9366 14.3805 24 14.5708 24C14.6977 24 14.8245 23.9726 14.9428 23.916C15.2394 23.772 15.4279 23.472 15.4279 23.1429V0.858108C15.4279 0.528979 15.2394 0.228992 14.9428 0.0849976ZM5.14264 15.4289H1.71421V8.57207H5.14264V15.4289ZM13.7137 21.3584L6.85686 15.8729V8.12809L13.7137 2.64261V21.3584Z" fill="#888888"/>
<path d="M19.7685 5.93901C19.4308 5.60474 18.8891 5.60988 18.5566 5.94587C18.224 6.28357 18.2274 6.82526 18.5634 7.15781C19.8576 8.43833 20.5708 10.1577 20.5708 12.0005C20.5708 13.8433 19.8576 15.5626 18.5634 16.8431C18.2257 17.1757 18.2223 17.7174 18.5566 18.0551C18.7246 18.2248 18.9457 18.3088 19.1651 18.3088C19.3828 18.3088 19.6005 18.2265 19.7685 18.0602C21.3919 16.4574 22.285 14.3061 22.285 12.0005C22.285 9.69485 21.3919 7.54351 19.7685 5.93901Z" fill="#888888"/>
<path d="M22.1853 3.52368C21.8493 3.19112 21.3059 3.19284 20.9734 3.52882C20.6408 3.86481 20.6425 4.40822 20.9785 4.74077C22.9258 6.67269 23.9989 9.25087 23.9989 12.0005C23.9989 14.7501 22.9258 17.3282 20.9785 19.2602C20.6425 19.5927 20.6408 20.1361 20.9734 20.4721C21.1414 20.6418 21.3608 20.7258 21.5819 20.7258C21.7996 20.7258 22.0173 20.6435 22.1853 20.4773C24.4601 18.2214 25.7132 15.2112 25.7132 12.0005C25.7132 8.78975 24.4601 5.77959 22.1853 3.52368Z" fill="#888888"/>
</svg>
