<svg width="23" height="24" viewBox="0 0 23 24" fill="none" xmlns="http://www.w3.org/2000/svg">
<path d="M20.9918 6.51849L22.5 0L16.3157 1.52077L11.2237 7.99272L6.11784 1.53598L0 0.00274873L1.43887 6.53114L7.83875 12.295L6.5209 13.9699L5.63187 13.0209L4.7006 14.0152L5.63187 15.0093L2.47124 18.3832C1.85343 18.4247 1.24678 18.6962 0.775566 19.1992C-0.251484 20.2954 -0.251484 22.0794 0.775566 23.1757C1.80262 24.2721 3.47374 24.2723 4.50079 23.1757C4.97183 22.6729 5.22623 22.0253 5.2652 21.3656L8.42583 17.9916L9.35709 18.9858L10.2884 17.9916L9.3964 17.0395L11.24 15.3666L13.0888 17.0402L12.1976 17.9916L13.1288 18.9858L14.0601 17.9916L17.2194 21.3641C17.2588 22.0486 17.5268 22.6866 17.9851 23.1757C19.0144 24.2747 20.6807 24.2748 21.7104 23.1757C22.7396 22.077 22.74 20.2982 21.7104 19.1991C21.252 18.71 20.6545 18.4237 20.0131 18.3816L16.8541 15.0091L17.7853 14.015L16.8541 13.0209L15.963 13.9719L14.6298 12.291L20.9918 6.51849ZM16.8541 16.9975L15.9228 17.9918L14.9914 16.9977L15.9228 16.0034L16.8541 16.9975ZM17.5781 19.7589L16.8541 18.9859L17.7853 17.9916L18.5094 18.7646C18.3206 18.8839 18.1444 19.0292 17.9851 19.1992C17.8258 19.3691 17.6899 19.5573 17.5781 19.7589ZM20.7789 22.1816C20.2643 22.731 19.4312 22.7312 18.9164 22.1816C18.4018 21.6322 18.4018 20.7429 18.9164 20.1934C19.4312 19.644 20.2643 19.6438 20.7789 20.1934C21.2937 20.7429 21.2937 21.632 20.7789 22.1816ZM2.6211 5.75655L1.76897 1.89039L5.39257 2.79838L10.3641 9.08525L8.68589 11.2184L2.6211 5.75655ZM4.50079 19.1992C4.34011 19.0275 4.16365 18.883 3.97619 18.7651L4.7006 17.9916L5.63204 18.9859L4.90763 19.7593C4.79708 19.5591 4.66146 19.3708 4.50079 19.1992ZM5.63187 16.9975L6.56313 16.0034L7.49456 16.9975L6.5633 17.9916L5.63187 16.9975ZM3.56953 22.1816C3.05609 22.7297 2.22044 22.7297 1.70683 22.1816C1.19339 21.6335 1.19339 20.7415 1.70683 20.1934C2.22044 19.6451 3.05592 19.6451 3.56953 20.1934C4.08297 20.7415 4.08297 21.6335 3.56953 22.1816ZM7.45577 14.9679L17.0408 2.78537L20.7075 1.88361L19.815 5.74097L8.46205 16.0421L7.45577 14.9679ZM15.0284 14.9697L14.0234 16.0426L12.257 14.444L13.6263 13.2015L15.0284 14.9697Z" fill="#888888"/>
</svg>
