<svg width="22" height="22" viewBox="0 0 22 22" fill="none" xmlns="http://www.w3.org/2000/svg">
<path fill-rule="evenodd" clip-rule="evenodd" d="M0 2C0 0.89543 0.89543 0 2 0H8.5C9.6046 0 10.5 0.89543 10.5 2V8.5C10.5 9.6046 9.6046 10.5 8.5 10.5H6V14.5625C6 15.3564 6.64359 16 7.4375 16H11.5V13.5C11.5 12.3954 12.3954 11.5 13.5 11.5H20C21.1046 11.5 22 12.3954 22 13.5V20C22 21.1046 21.1046 22 20 22H13.5C12.3954 22 11.5 21.1046 11.5 20V17.5H7.4375C5.81516 17.5 4.5 16.1848 4.5 14.5625V10.5H2C0.89543 10.5 0 9.6046 0 8.5V2ZM2 1.5C1.72386 1.5 1.5 1.72386 1.5 2V8.5C1.5 8.77614 1.72386 9 2 9H8.5C8.77614 9 9 8.77614 9 8.5V2C9 1.72386 8.77614 1.5 8.5 1.5H2ZM13.5 13C13.2239 13 13 13.2239 13 13.5V20C13 20.2761 13.2239 20.5 13.5 20.5H20C20.2761 20.5 20.5 20.2761 20.5 20V13.5C20.5 13.2239 20.2761 13 20 13H13.5Z" fill="#888888"/>
</svg>
