<svg width="24" height="24" viewBox="0 0 24 24" fill="none" xmlns="http://www.w3.org/2000/svg">
<path d="M15 20.25H3C1.3458 20.25 0 18.9883 0 17.4375V2.8125C0 1.26169 1.3458 0 3 0H13C13.8013 0 14.5547 0.292547 15.1213 0.823734C15.1213 0.823734 15.1213 0.823734 15.1214 0.823781L17.1214 2.69878C17.688 3.23002 18 3.93628 18 4.6875V17.4375C18 18.9883 16.6542 20.25 15 20.25ZM3 1.875C2.4486 1.875 2 2.29556 2 2.8125V17.4375C2 17.9544 2.4486 18.375 3 18.375H15C15.5514 18.375 16 17.9544 16 17.4375V4.6875C16 4.43709 15.896 4.20164 15.7071 4.02459L13.7071 2.14959C13.5182 1.9725 13.2671 1.875 13 1.875H3Z" fill="#888888"/>
<path d="M21 24H9C8.4477 24 8 23.5803 8 23.0625C8 22.5447 8.4477 22.125 9 22.125H21C21.5514 22.125 22 21.7044 22 21.1875V8.43748C22 8.18707 21.896 7.95162 21.7071 7.77457L20.293 6.44881C19.9024 6.08267 19.9024 5.48909 20.2929 5.12299C20.6835 4.75685 21.3166 4.75685 21.7071 5.12299L23.1213 6.44881C23.688 6.97999 24 7.68626 24 8.43748V21.1875C24 22.7383 22.6542 24 21 24Z" fill="#888888"/>
<path d="M13 7.50012H5C4.4477 7.50012 4 7.0804 4 6.56262C4 6.04484 4.4477 5.62512 5 5.62512H13C13.5523 5.62512 14 6.04484 14 6.56262C14 7.0804 13.5523 7.50012 13 7.50012Z" fill="#888888"/>
<path d="M13 11.2501H5C4.4477 11.2501 4 10.8303 4 10.3126C4 9.79478 4.4477 9.37506 5 9.37506H13C13.5523 9.37506 14 9.79478 14 10.3126C14 10.8303 13.5523 11.2501 13 11.2501Z" fill="#888888"/>
<path d="M9 15H5C4.4477 15 4 14.5803 4 14.0625C4 13.5447 4.4477 13.125 5 13.125H9C9.5523 13.125 10 13.5447 10 14.0625C10 14.5803 9.5523 15 9 15Z" fill="#888888"/>
</svg>
