<svg width="24" height="24" viewBox="0 0 24 24" fill="none" xmlns="http://www.w3.org/2000/svg">
<path d="M21.4163 0H12.3081C12.1217 0 11.9428 0.0741577 11.811 0.205994L0.755308 11.2614C-0.251769 12.2688 -0.251769 13.9078 0.755308 14.9149L9.08493 23.2443C9.57126 23.7307 10.22 23.9985 10.9114 23.9987H10.9116C11.6032 23.9987 12.2519 23.7307 12.7384 23.2441L23.7938 12.1886C23.9256 12.0568 23.9997 11.8779 23.9997 11.6915L23.9999 2.58325C23.9997 1.15887 22.8407 0 21.4163 0V0ZM22.5935 11.4003L11.744 22.2499C11.5232 22.4709 11.2274 22.5925 10.9116 22.5925C10.5955 22.5925 10.3 22.4709 10.0792 22.2501L1.74957 13.9206C1.29071 13.4617 1.29071 12.7147 1.74957 12.2556L12.5993 1.40625H21.4163C22.0654 1.40625 22.5937 1.93433 22.5937 2.58344L22.5935 11.4003Z" fill="#888888"/>
<path d="M20.9175 0.429688H12.254C12.0767 0.429688 11.9066 0.500224 11.7812 0.625623L1.2653 11.1412C0.307399 12.0994 0.307399 13.6584 1.2653 14.6163L9.18821 22.539C9.65079 23.0016 10.2679 23.2564 10.9255 23.2566H10.9257C11.5835 23.2566 12.2006 23.0016 12.6633 22.5389L23.1788 12.0231C23.3042 11.8977 23.3748 11.7276 23.3748 11.5503L23.3749 2.8868C23.3748 1.53198 22.2723 0.429688 20.9175 0.429688V0.429688ZM22.0372 11.2734L11.7174 21.5931C11.5074 21.8034 11.2261 21.919 10.9257 21.919C10.6251 21.919 10.344 21.8034 10.1339 21.5933L2.21101 13.6706C1.77456 13.2341 1.77456 12.5235 2.21101 12.0869L12.5309 1.76727H20.9175C21.5349 1.76727 22.0373 2.26956 22.0373 2.88698L22.0372 11.2734Z" fill="#888888"/>
<path d="M17.8024 3.98804C17.2122 3.98804 16.6574 4.21802 16.2401 4.63531C15.8228 5.05243 15.593 5.60724 15.593 6.19739C15.593 6.78754 15.8228 7.34235 16.2401 7.75964C16.6574 8.17694 17.2122 8.40674 17.8024 8.40674C18.3923 8.40674 18.9471 8.17694 19.3644 7.75964C19.7817 7.34235 20.0115 6.78754 20.0115 6.19739C20.0115 5.60724 19.7817 5.05243 19.3646 4.63531C18.9473 4.21802 18.3925 3.98804 17.8024 3.98804V3.98804ZM18.3702 6.7652C18.2186 6.91699 18.0168 7.00049 17.8024 7.00049C17.5878 7.00049 17.3862 6.91699 17.2346 6.7652C17.0828 6.61359 16.9993 6.4118 16.9993 6.19739C16.9993 5.98297 17.0828 5.78119 17.2346 5.62958C17.3862 5.47778 17.5879 5.39429 17.8024 5.39429C18.0168 5.39429 18.2184 5.47778 18.3702 5.62958C18.522 5.78119 18.6055 5.98297 18.6055 6.19739C18.6055 6.4118 18.5218 6.61359 18.3702 6.7652V6.7652Z" fill="#888888"/>
</svg>
