<svg width="22" height="24" viewBox="0 0 22 24" fill="none" xmlns="http://www.w3.org/2000/svg">
<path d="M11.0004 23.895C10.8421 23.895 10.6848 23.8543 10.5429 23.7724L1.03379 18.2824C0.750601 18.119 0.576294 17.8166 0.576294 17.49V6.50999C0.576294 6.18333 0.750601 5.88093 1.03379 5.7176L10.5429 0.227598C10.8261 0.0642707 11.1747 0.0642707 11.4579 0.227598L20.9662 5.7176C21.2493 5.88093 21.4237 6.18333 21.4237 6.50999V17.49C21.4237 17.8166 21.2493 18.119 20.9662 18.2824L11.4579 23.7724C11.3161 23.8543 11.1587 23.895 11.0004 23.895ZM2.40629 16.9616L11.0004 21.9232L19.5937 16.9616V7.0384L11.0004 2.07681L2.40629 7.0384V16.9616Z" fill="#888888"/>
<path d="M11.0004 23.895C10.4954 23.895 10.0854 23.4851 10.0854 22.98V12C10.0854 11.4949 10.4954 11.085 11.0004 11.085C11.5055 11.085 11.9154 11.4949 11.9154 12V22.98C11.9154 23.4851 11.5055 23.895 11.0004 23.895Z" fill="#888888"/>
<path d="M10.9995 12.915C10.8444 12.915 10.6871 12.8756 10.5429 12.7919L1.03381 7.30191C0.595979 7.04983 0.446377 6.49031 0.698459 6.05248C0.951457 5.61465 1.50915 5.46413 1.94835 5.71759L11.4575 11.2076C11.8953 11.4601 12.0449 12.0197 11.7924 12.4575C11.6231 12.7512 11.3157 12.915 10.9995 12.915Z" fill="#888888"/>
<path d="M11.0014 12.915C10.6852 12.915 10.3778 12.7507 10.2081 12.4575C9.95552 12.0197 10.1051 11.4601 10.5429 11.2076L20.0512 5.71759C20.4885 5.46413 21.0481 5.61465 21.3011 6.05248C21.5536 6.49031 21.404 7.04983 20.9662 7.30237L11.4579 12.7924C11.3143 12.8756 11.1565 12.915 11.0014 12.915Z" fill="#888888"/>
</svg>
