<svg width="25" height="24" viewBox="0 0 25 24" fill="none" xmlns="http://www.w3.org/2000/svg">
<path d="M3.39327 3.87788C3.39327 3.34247 3.82728 2.90846 4.36269 2.90846C4.8981 2.90846 5.33211 3.34247 5.33211 3.87788C5.33211 4.41348 4.8981 4.8475 4.36269 4.8475C3.82728 4.8475 3.39327 4.41348 3.39327 3.87788ZM7.75595 4.8475C8.29136 4.8475 8.72538 4.41348 8.72538 3.87788C8.72538 3.34247 8.29136 2.90846 7.75595 2.90846C7.22054 2.90846 6.78634 3.34247 6.78634 3.87788C6.78634 4.41348 7.22054 4.8475 7.75595 4.8475ZM24.8415 19.8708L20.7218 24L14.0249 17.4868C13.6502 17.1119 13.364 16.6477 13.1976 16.1445L13.1825 16.0987L12.1461 11.4699L16.7626 12.5197L16.8069 12.5345C17.3077 12.7003 17.7697 12.9848 18.1437 13.3572L24.8415 19.8708ZM22.0818 19.8917L16.7774 14.733C16.7404 14.696 16.7014 14.6609 16.6604 14.6282L15.2902 15.9975C15.3222 16.0375 15.3561 16.0756 15.3921 16.1119L20.7013 21.2752L22.0818 19.8917ZM15.0756 21.3288L17.0692 23.2677H2.90846C1.30469 23.2677 0 21.963 0 20.3592V2.90846C0 1.30469 1.30469 0 2.90846 0H21.9105C23.5142 0 24.8189 1.30469 24.8189 2.90846V17.0473L22.8799 15.1617V7.75595H1.93904V20.3592C1.93904 20.8939 2.37381 21.3288 2.90846 21.3288H15.0756ZM1.93904 2.90846V5.81692H22.8799V2.90846C22.8799 2.37381 22.4449 1.93904 21.9105 1.93904H2.90846C2.37381 1.93904 1.93904 2.37381 1.93904 2.90846V2.90846Z" fill="#888888"/>
</svg>
