<svg width="20" height="24" viewBox="0 0 20 24" fill="none" xmlns="http://www.w3.org/2000/svg">
<path d="M12.3637 0H2.8125C1.26169 0 0 1.26169 0 2.8125V21.1875C0 22.7383 1.26169 24 2.8125 24H16.2135C17.7644 24 19.026 22.7383 19.026 21.1875V6.69637L12.3637 0ZM12.8853 3.18281L15.8333 6.14583H13.8228C13.3059 6.14583 12.8853 5.72527 12.8853 5.20833V3.18281ZM17.151 21.1875C17.151 21.7044 16.7304 22.125 16.2135 22.125H2.8125C2.29556 22.125 1.875 21.7044 1.875 21.1875V2.8125C1.875 2.29556 2.29556 1.875 2.8125 1.875H11.0104V5.20833C11.0104 6.75914 12.2721 8.02083 13.8229 8.02083H17.151V21.1875Z" fill="#888888"/>
</svg>
