<svg width="24" height="24" viewBox="0 0 24 24" fill="none" xmlns="http://www.w3.org/2000/svg">
<path d="M21.612 3.32189V2.3887C21.612 1.07156 20.5404 0 19.2233 0H12.5799C11.9418 0 11.3419 0.248484 10.8908 0.699703L1.49524 10.0953C1.04402 10.5465 0.795532 11.1463 0.795532 11.7844C0.795532 12.4224 1.04402 13.0223 1.49524 13.4735L2.44994 14.4282C2.40949 14.6037 2.38806 14.7848 2.38806 14.9693C2.38806 15.6074 2.63655 16.2073 3.08777 16.6584L9.73103 23.3016C10.1967 23.7672 10.8084 24 11.4201 24C12.0318 24 12.6435 23.7672 13.1091 23.3015L22.5048 13.9058C22.956 13.4546 23.2045 12.8548 23.2045 12.2167V5.57363C23.2045 4.53562 22.5387 3.65058 21.612 3.32189ZM2.62127 12.3474C2.47089 12.197 2.38802 11.997 2.38802 11.7843C2.38802 11.5716 2.47089 11.3717 2.62127 11.2213L12.0168 1.82569C12.1673 1.67536 12.3672 1.59248 12.5799 1.59248H19.2232C19.6623 1.59248 20.0194 1.94967 20.0194 2.3887V3.18492H14.1723C13.5342 3.18492 12.9344 3.43341 12.4833 3.88462L3.32097 13.047L2.62127 12.3474ZM21.3787 12.7798L11.9831 22.1754C11.6725 22.4859 11.1675 22.4858 10.8571 22.1754L4.21375 15.5323C4.06338 15.3819 3.9805 15.182 3.9805 14.9692C3.9805 14.7565 4.06338 14.5567 4.21375 14.4062L13.6093 5.01056C13.7598 4.86023 13.9597 4.77736 14.1724 4.77736H20.8157C21.2547 4.77736 21.6119 5.13455 21.6119 5.57358V12.2167H21.612C21.612 12.4294 21.5291 12.6294 21.3787 12.7798Z" fill="#888888"/>
</svg>
