<svg width="24" height="24" viewBox="0 0 24 24" fill="none" xmlns="http://www.w3.org/2000/svg">
<path fill-rule="evenodd" clip-rule="evenodd" d="M8.48438 22.1719C9.0022 22.1719 9.42188 21.8426 9.42188 21.3248C9.42188 20.807 9.0022 20.2969 8.48438 20.2969H3.74998C2.71617 20.2969 1.87499 19.4557 1.87499 18.4219V3.93413C1.87499 2.90032 2.71617 2.05914 3.74961 2.05914L7.31283 2.06042C8.34647 2.0606 9.18745 2.9016 9.18745 3.93523V4.02971V4.03264C9.18909 4.54918 9.6082 4.9672 10.125 4.9672C10.1524 4.9672 10.1795 4.96593 10.2062 4.96373L21.1874 4.96392C21.4379 4.96392 21.6731 5.06132 21.8502 5.23837C22.0273 5.41547 22.1249 5.65073 22.1249 5.90123V6.55917V7.12167V8.71542V9.89386C22.1249 10.4117 22.5176 10.9687 23.0355 10.9687C23.5531 10.9687 23.9997 10.4117 23.9997 9.89386V5.90123C23.9997 5.14992 23.7073 4.44371 23.1761 3.91252C22.6449 3.38133 21.9386 3.08892 21.1877 3.08892H21.1874L10.9659 3.08874C10.581 1.42779 9.08948 0.185799 7.31339 0.185432L3.74998 0.184151C1.68218 0.184151 0 1.86651 0 3.93413V18.4219C0 20.4897 1.68218 22.1719 3.74998 22.1719H8.48438Z" fill="#888888"/>
<path fill-rule="evenodd" clip-rule="evenodd" d="M22.1446 18.1361L21.6866 19.03C21.4406 19.5107 20.8789 19.7494 20.3532 19.5967L19.0657 19.2228C18.7458 19.4834 18.3927 19.6986 18.0137 19.8631L17.8051 21.1421C17.7172 21.6814 17.2431 22.0781 16.6867 22.0781H15.6672C15.1189 22.0781 14.6494 21.6929 14.5523 21.1634L14.3114 19.8499C14.2882 19.8397 14.2658 19.828 14.2428 19.8173C14.2215 19.8075 14.2005 19.7973 14.1795 19.7872C14.1291 19.7628 14.0791 19.7378 14.0295 19.7116C14.0182 19.7057 14.0072 19.6994 13.9959 19.6934C13.8087 19.5922 13.6282 19.4795 13.4569 19.3533L12.2259 19.8321C11.6958 20.0382 11.0924 19.8256 10.8168 19.3359L10.2858 18.3921C10.0183 17.9165 10.14 17.3207 10.5741 16.9833L11.6593 16.1395C11.6575 16.1163 11.6566 16.093 11.6551 16.0698C11.6538 16.0466 11.6522 16.0236 11.6511 16.0003C11.6478 15.9326 11.6458 15.8648 11.6458 15.7969C11.6458 15.7267 11.6475 15.6566 11.6509 15.5863L10.5389 14.8638C10.0528 14.5481 9.89043 13.9222 10.163 13.4167L10.719 12.3862C10.9796 11.9033 11.5591 11.6776 12.0861 11.8544L13.3888 12.2908C13.6722 12.0735 13.9802 11.8902 14.3072 11.745L14.4888 10.4732C14.5672 9.92405 15.0457 9.51562 15.6105 9.51562H16.6867C17.2349 9.51562 17.7044 9.90084 17.8015 10.4304L18.0425 11.7439C18.0646 11.7536 18.0861 11.7649 18.1082 11.7751C18.1249 11.7828 18.1415 11.7908 18.158 11.7987L18.1648 11.802L18.165 11.8021L18.1766 11.8077C18.2246 11.8309 18.2722 11.8548 18.3193 11.8796C18.3345 11.8876 18.3496 11.8961 18.3646 11.9043C18.4177 11.933 18.4704 11.9623 18.5221 11.9931C18.5259 11.9955 18.5299 11.9979 18.5337 12.0003C18.6529 12.0717 18.7693 12.1473 18.8817 12.2296L20.101 11.7601C20.6036 11.5667 21.1755 11.7484 21.4674 12.194L22.0855 13.1378C22.4048 13.6249 22.2893 14.2709 21.8203 14.6224L20.6954 15.4653C20.6972 15.4868 20.6979 15.5081 20.6992 15.5294C20.7006 15.5509 20.7019 15.5726 20.7029 15.5943C20.7061 15.6618 20.7081 15.7293 20.7081 15.7969C20.7081 15.8525 20.7069 15.9083 20.705 15.9638L21.795 16.7347C22.2464 17.0541 22.3946 17.6482 22.1446 18.1361ZM16.1769 18.0203C15.9663 18.0203 15.7627 17.9915 15.5694 17.9385C15.5375 17.9298 15.5061 17.9205 15.4749 17.9105C15.4563 17.9046 15.4378 17.8985 15.4194 17.892C15.392 17.8824 15.3647 17.872 15.3375 17.8614C15.309 17.8503 15.2806 17.8384 15.2526 17.826C15.2289 17.8155 15.2052 17.8049 15.1818 17.7938C15.1603 17.7834 15.1393 17.7728 15.1183 17.7617C15.0988 17.7517 15.0795 17.7411 15.0605 17.7305C15.0304 17.7137 15.001 17.6963 14.9718 17.6783C14.9488 17.664 14.926 17.6497 14.9034 17.6347C14.8842 17.6219 14.8654 17.6084 14.8466 17.595C14.8273 17.5813 14.8083 17.5672 14.7895 17.5529C14.7727 17.5398 14.7556 17.5272 14.739 17.5138C14.7081 17.4885 14.6775 17.4625 14.6474 17.4356C14.6333 17.4228 14.6196 17.4095 14.6059 17.3965C14.5848 17.3767 14.5642 17.3563 14.5441 17.3357C14.2694 17.055 14.0689 16.7039 13.9738 16.313C13.9662 16.2822 13.9591 16.2511 13.9532 16.2201C13.9505 16.2073 13.9483 16.1945 13.9461 16.1816C13.9408 16.1519 13.9361 16.1219 13.9319 16.092L13.9318 16.0907C13.931 16.0852 13.9303 16.0795 13.9295 16.0739L13.9293 16.0724C13.9284 16.0659 13.9276 16.0594 13.9268 16.0529C13.9231 16.0218 13.9204 15.9908 13.918 15.9595C13.9173 15.948 13.916 15.9363 13.9154 15.9246C13.9129 15.882 13.9114 15.8394 13.9114 15.7969C13.9114 15.7559 13.9127 15.7148 13.9149 15.6738C13.9152 15.6699 13.9155 15.6662 13.9159 15.6626L13.9162 15.6585C13.9184 15.6214 13.9218 15.5845 13.9259 15.5476C13.9262 15.5444 13.9268 15.5413 13.9271 15.538C13.9319 15.499 13.9375 15.4601 13.9443 15.421C13.9446 15.4191 13.945 15.4171 13.9454 15.4152C13.9523 15.3761 13.9603 15.3372 13.9693 15.2985C14.064 14.8945 14.2711 14.5321 14.5565 14.245C14.5649 14.2365 14.5733 14.2279 14.582 14.2196C14.6043 14.1977 14.6269 14.1764 14.6503 14.1555C14.6561 14.1503 14.6621 14.1454 14.668 14.1401C14.7145 14.0993 14.7627 14.0603 14.8127 14.0231C14.8158 14.0207 14.8189 14.0184 14.8221 14.016L14.8262 14.0129C14.8539 13.9927 14.8822 13.973 14.9109 13.9538C14.9112 13.9536 14.9114 13.9534 14.9118 13.9532C14.9674 13.9165 15.0247 13.8822 15.0835 13.8502C15.0908 13.8464 15.0977 13.8425 15.105 13.8388C15.1331 13.8238 15.1616 13.8092 15.1906 13.7955C15.2003 13.7908 15.2103 13.7866 15.2203 13.7821C15.2658 13.7612 15.3123 13.7417 15.3594 13.7239C15.3789 13.7163 15.3983 13.7089 15.4183 13.702C15.4409 13.6942 15.4634 13.6866 15.4862 13.6794C15.5178 13.6696 15.5497 13.6603 15.5818 13.6518C15.7716 13.601 15.971 13.5734 16.1769 13.5734C16.3874 13.5734 16.5909 13.6023 16.7842 13.6553C16.8159 13.664 16.8471 13.6731 16.8783 13.6831C16.8964 13.689 16.9148 13.695 16.9327 13.7013C16.9604 13.7109 16.9876 13.7211 17.0146 13.7317C17.0398 13.7415 17.0646 13.7519 17.0894 13.7625C17.117 13.7745 17.1444 13.7866 17.1714 13.7997C17.1911 13.8092 17.2104 13.819 17.2296 13.829C17.2515 13.8403 17.2734 13.8522 17.2951 13.8644C17.3128 13.8744 17.3307 13.8839 17.3482 13.8944C17.3827 13.915 17.4166 13.9365 17.4498 13.9586C17.4657 13.9693 17.4812 13.9803 17.4967 13.9914C17.5199 14.0077 17.5427 14.0244 17.565 14.0415C17.5792 14.0522 17.5931 14.0628 17.6069 14.0739C17.64 14.1004 17.6728 14.128 17.7046 14.1566C17.7144 14.1655 17.7239 14.1747 17.7336 14.1838C17.7588 14.2073 17.7834 14.2311 17.8075 14.2557C18.0841 14.5375 18.2854 14.8899 18.3805 15.2829C18.3876 15.3122 18.3945 15.3418 18.4002 15.3715C18.4016 15.3781 18.4029 15.3848 18.4041 15.3916L18.405 15.3968C18.4057 15.401 18.4065 15.4051 18.4073 15.4093L18.408 15.413C18.4131 15.4418 18.4175 15.4707 18.4215 15.4996C18.4235 15.5135 18.4252 15.5272 18.427 15.5411C18.4305 15.5715 18.4332 15.6021 18.4357 15.6327C18.4365 15.6449 18.4376 15.657 18.4383 15.6692C18.4409 15.7118 18.4425 15.7543 18.4425 15.7969C18.4425 15.8738 18.4383 15.9506 18.4303 16.0273L18.429 16.037C18.4252 16.0713 18.4208 16.1056 18.4155 16.1397C18.4143 16.1475 18.4128 16.1552 18.4113 16.1629L18.4106 16.1667L18.4105 16.1669C18.4098 16.1705 18.4091 16.1741 18.4084 16.1777C18.4042 16.2016 18.4002 16.2257 18.3952 16.2494C18.3142 16.632 18.1325 16.9785 17.8792 17.2617C17.8462 17.2984 17.8128 17.3342 17.7779 17.3685C17.7742 17.3722 17.7705 17.3756 17.7667 17.3791L17.7652 17.3805L17.7651 17.3806L17.7641 17.3815C17.7608 17.3845 17.7576 17.3875 17.7544 17.3906C17.7272 17.4167 17.6993 17.4419 17.6708 17.4664C17.6557 17.4795 17.6407 17.4925 17.6254 17.505C17.5938 17.5309 17.5617 17.5559 17.5289 17.5798C17.5088 17.5948 17.4878 17.6089 17.4673 17.6232C17.4491 17.6354 17.4307 17.6475 17.4124 17.6592C17.3788 17.6807 17.3444 17.7014 17.3097 17.7213L17.3096 17.7214C17.2887 17.7333 17.2677 17.7452 17.2462 17.7565C17.2234 17.7684 17.2004 17.78 17.1774 17.791C17.1674 17.7959 17.1573 17.8007 17.1472 17.8054C17.1429 17.8074 17.1385 17.8094 17.1342 17.8114C17.1235 17.8163 17.1127 17.8211 17.102 17.8258C17.0754 17.8373 17.0486 17.8486 17.0217 17.8594C16.9889 17.8722 16.9561 17.8846 16.9228 17.8959C16.9066 17.9016 16.8905 17.907 16.8743 17.9122C16.8278 17.9267 16.7812 17.9404 16.7338 17.9521C16.5555 17.9964 16.369 18.0203 16.1769 18.0203Z" fill="#888888"/>
</svg>
