<svg width="28" height="24" viewBox="0 0 28 24" fill="none" xmlns="http://www.w3.org/2000/svg">
<path d="M24.3212 3.69231H20.3575L19.896 2.30769C19.6735 1.63539 19.2446 1.0504 18.6704 0.636057C18.0961 0.221711 17.4057 -0.000873204 16.6975 2.57448e-06H10.9948C10.2868 -0.000538396 9.5967 0.222191 9.02263 0.636503C8.44855 1.05082 8.01975 1.63561 7.79723 2.30769L7.33477 3.69231H3.37108C2.47731 3.69329 1.62043 4.04877 0.988445 4.68075C0.356457 5.31274 0.000977327 6.16962 0 7.06339V20.6326C0.00195379 21.5257 0.357865 22.3817 0.989747 23.0129C1.62163 23.6441 2.47795 23.999 3.37108 24H24.3249C25.218 23.998 26.074 23.6421 26.7052 23.0103C27.3364 22.3784 27.6913 21.522 27.6923 20.6289V7.05969C27.6903 6.16657 27.3344 5.31064 26.7026 4.67945C26.0707 4.04826 25.2144 3.69329 24.3212 3.69231ZM25.8462 20.6289C25.8457 21.0332 25.6848 21.4208 25.399 21.7067C25.1131 21.9925 24.7255 22.1534 24.3212 22.1538H3.37108C2.96679 22.1534 2.57921 21.9925 2.29333 21.7067C2.00746 21.4208 1.84664 21.0332 1.84615 20.6289V7.05969C1.84762 6.65605 2.00887 6.26941 2.29463 5.98434C2.5804 5.69926 2.96743 5.53895 3.37108 5.53846H8.00031C8.19396 5.53832 8.38267 5.47727 8.53971 5.36396C8.69676 5.25065 8.81419 5.09081 8.87538 4.90708L9.54831 2.88831C9.64935 2.58466 9.84348 2.32056 10.1031 2.13349C10.3628 1.94642 10.6747 1.84588 10.9948 1.84616H16.6975C17.0177 1.84581 17.3298 1.94642 17.5895 2.13369C17.8492 2.32095 18.0432 2.58534 18.144 2.88923L18.8169 4.90708C18.8781 5.09081 18.9955 5.25065 19.1526 5.36396C19.3096 5.47727 19.4983 5.53832 19.692 5.53846H24.3212C24.7255 5.53895 25.1131 5.69977 25.399 5.98564C25.6848 6.27152 25.8457 6.6591 25.8462 7.06339V20.6289Z" fill="#888888"/>
<path d="M13.8462 6.46144C12.4769 6.46144 11.1384 6.86747 9.99992 7.62819C8.86143 8.38891 7.97408 9.47014 7.45009 10.7352C6.9261 12.0002 6.789 13.3922 7.05612 14.7351C7.32325 16.0781 7.98261 17.3117 8.95082 18.2799C9.91903 19.2481 11.1526 19.9074 12.4955 20.1746C13.8385 20.4417 15.2305 20.3046 16.4955 19.7806C17.7605 19.2566 18.8418 18.3693 19.6025 17.2308C20.3632 16.0923 20.7693 14.7538 20.7693 13.3845C20.7673 11.549 20.0373 9.78923 18.7394 8.49132C17.4415 7.19342 15.6817 6.4634 13.8462 6.46144ZM13.8462 18.4614C12.8421 18.4614 11.8605 18.1637 11.0256 17.6058C10.1907 17.048 9.53997 16.2551 9.15571 15.3274C8.77145 14.3997 8.67091 13.3789 8.8668 12.3941C9.0627 11.4092 9.54623 10.5046 10.2562 9.79459C10.9663 9.08457 11.8709 8.60104 12.8557 8.40515C13.8405 8.20925 14.8613 8.30979 15.789 8.69405C16.7167 9.07831 17.5096 9.72903 18.0675 10.5639C18.6253 11.3988 18.9231 12.3804 18.9231 13.3845C18.9216 14.7306 18.3863 16.021 17.4345 16.9728C16.4827 17.9246 15.1922 18.46 13.8462 18.4614Z" fill="#888888"/>
<path d="M23.077 9.23086C23.5868 9.23086 24.0001 8.81758 24.0001 8.30778C24.0001 7.79798 23.5868 7.3847 23.077 7.3847C22.5672 7.3847 22.1539 7.79798 22.1539 8.30778C22.1539 8.81758 22.5672 9.23086 23.077 9.23086Z" fill="#888888"/>
</svg>
