<svg width="24" height="24" viewBox="0 0 24 24" fill="none" xmlns="http://www.w3.org/2000/svg">
<path d="M23.0626 0H0.93755C0.4197 0 0 0.419679 0 0.937502C0 3.54823 1.1192 6.04066 3.07066 7.77523L7.17665 11.4245C7.8886 12.0573 8.29695 12.9666 8.29695 13.9193V23.0615C8.29695 23.8085 9.13196 24.2564 9.75437 23.8413L15.2857 20.1541C15.5465 19.9801 15.7032 19.6875 15.7032 19.3741V13.9193C15.7032 12.9666 16.1116 12.0573 16.8235 11.4245L20.9293 7.77523C22.8808 6.04066 24 3.54823 24 0.937502C24 0.419679 23.5803 0 23.0626 0ZM19.6836 6.37373L15.5778 10.0232C14.4659 11.0116 13.8281 12.4316 13.8281 13.9192V18.8724L10.1719 21.3097V13.9193C10.1719 12.4316 9.53408 11.0116 8.4222 10.0232L4.31639 6.37392C3.00053 5.20405 2.16058 3.60114 1.93571 1.87482H22.0643C21.8394 3.60114 20.9997 5.20405 19.6836 6.37373Z" fill="#888888"/>
</svg>
