<svg width="24" height="24" viewBox="0 0 24 24" fill="none" xmlns="http://www.w3.org/2000/svg">
<path d="M18.2168 24C17.9013 24.0002 17.5905 23.9199 17.3116 23.766L12.1306 20.9271C12.0904 20.9048 12.0456 20.8931 12.0001 20.8931C11.9545 20.8931 11.9097 20.9048 11.8696 20.9271L6.68932 23.766C6.36831 23.9421 6.00642 24.0211 5.64461 23.9939C5.2828 23.9667 4.9355 23.8345 4.64203 23.6122C4.34855 23.3899 4.1206 23.0865 3.98398 22.7362C3.84736 22.3858 3.80751 22.0026 3.86895 21.6299L4.85812 15.6168C4.86572 15.5697 4.86211 15.5213 4.84762 15.476C4.83313 15.4307 4.80819 15.3898 4.77499 15.3568L0.587244 11.0959C0.327236 10.8318 0.143374 10.4971 0.0564884 10.1297C-0.0303967 9.76222 -0.0168308 9.37676 0.0956489 9.01695C0.208129 8.65714 0.415026 8.33736 0.692898 8.09385C0.97077 7.85033 1.30851 7.69282 1.66785 7.63916L7.45572 6.76306C7.50075 6.75623 7.54351 6.73806 7.5803 6.71013C7.61709 6.68219 7.6468 6.64534 7.66685 6.60274L10.2545 1.13036C10.4148 0.791112 10.6629 0.505428 10.9709 0.305655C11.2789 0.105881 11.6344 0 11.9972 0C12.3599 0 12.7154 0.105881 13.0234 0.305655C13.3314 0.505428 13.5796 0.791112 13.7398 1.13036L16.3291 6.60101C16.3493 6.64347 16.3791 6.68021 16.4159 6.70812C16.4526 6.73603 16.4953 6.75428 16.5403 6.76133L22.3331 7.6383C22.6923 7.69226 23.0298 7.84994 23.3075 8.09349C23.5851 8.33704 23.7919 8.65674 23.9043 9.01642C24.0167 9.3761 24.0304 9.76141 23.9437 10.1288C23.857 10.4961 23.6734 10.8308 23.4137 11.095L19.2218 15.3534C19.1887 15.3864 19.1639 15.4273 19.1494 15.4726C19.1349 15.5179 19.1312 15.5662 19.1387 15.6133L20.1278 21.6265C20.1754 21.917 20.1617 22.2149 20.0877 22.4993C20.0136 22.7838 19.881 23.048 19.699 23.2736C19.517 23.4992 19.2901 23.6807 19.034 23.8055C18.7779 23.9304 18.4987 23.9956 18.216 23.9965L18.2168 24ZM12.0001 19.1593C12.3153 19.1593 12.6258 19.2396 12.9044 19.3933L18.0847 22.2313C18.1305 22.2587 18.1831 22.2712 18.2358 22.2673C18.2885 22.2635 18.3389 22.2434 18.3806 22.2097C18.4242 22.1785 18.458 22.1348 18.4779 22.0838C18.4979 22.0328 18.5031 21.9768 18.4928 21.9228L17.5028 15.9088C17.4499 15.5852 17.4731 15.253 17.5704 14.9407C17.6677 14.6284 17.8362 14.3454 18.0614 14.1159L22.2533 9.85671C22.2907 9.81851 22.3172 9.77016 22.3296 9.71712C22.3421 9.66408 22.3401 9.60847 22.3238 9.55656C22.3076 9.50465 22.2777 9.45851 22.2377 9.42335C22.1976 9.38819 22.1489 9.3654 22.097 9.35757L16.305 8.47974C15.9932 8.43266 15.697 8.30715 15.4421 8.11405C15.1873 7.92095 14.9813 7.66605 14.842 7.37139L12.2494 1.89987C12.2262 1.85091 12.1903 1.80968 12.1458 1.78086C12.1013 1.75204 12.05 1.73677 11.9976 1.73677C11.9452 1.73677 11.8938 1.75204 11.8493 1.78086C11.8048 1.80968 11.7689 1.85091 11.7457 1.89987L9.15808 7.36966C9.01876 7.66443 8.81267 7.91939 8.55762 8.1125C8.30258 8.30561 8.00626 8.43106 7.69428 8.478L1.90308 9.35757C1.85114 9.36523 1.8023 9.38794 1.76214 9.42312C1.72197 9.4583 1.69208 9.50453 1.67588 9.55655C1.65968 9.60857 1.65782 9.66428 1.67051 9.71735C1.6832 9.77042 1.70992 9.81871 1.74764 9.85671L5.93872 14.1159C6.16394 14.3454 6.33242 14.6284 6.42971 14.9407C6.527 15.253 6.55019 15.5852 6.4973 15.9088L5.50731 21.9228C5.49833 21.9769 5.50407 22.0324 5.5239 22.0832C5.54372 22.134 5.57682 22.178 5.61944 22.2101C5.66205 22.2423 5.71247 22.2613 5.76495 22.2651C5.81742 22.2688 5.86985 22.2571 5.91627 22.2313L11.0957 19.3924C11.3745 19.2394 11.6849 19.1593 12.0001 19.1593Z" fill="#888888"/>
</svg>
