<svg width="24" height="24" viewBox="0 0 24 24" fill="none" xmlns="http://www.w3.org/2000/svg">
<path d="M11.3685 15.3088C10.9461 15.6099 10.8473 16.1979 11.1502 16.6212C11.3601 16.9157 11.3271 17.3155 11.0722 17.5714L6.99373 21.6404C6.47065 22.1692 5.67002 22.2689 5.04532 21.8794C4.54009 21.5651 4.00384 21.1211 3.44031 20.5491C2.88053 19.9978 2.43648 19.4605 2.12035 18.9534C1.73274 18.3306 1.82963 17.5234 2.35271 16.9937L6.43301 12.9228C6.68234 12.6698 7.08406 12.6359 7.37192 12.8447C7.7915 13.1515 8.37955 13.0583 8.68719 12.6377C8.99296 12.2182 8.89981 11.6292 8.48019 11.3234C7.44715 10.5708 5.98891 10.6912 5.09796 11.5972L1.01953 15.6662C-0.123565 16.8215 -0.327706 18.5827 0.523735 19.9478C0.916971 20.581 1.45421 21.2339 2.10994 21.8803C2.76849 22.5473 3.42048 23.0845 4.0518 23.4768C4.61627 23.8287 5.24571 23.9999 5.8713 23.9999C6.76788 23.9999 7.65509 23.6471 8.32681 22.9679L12.4015 18.9026C13.3112 17.9929 13.4288 16.5732 12.6809 15.527C12.378 15.1046 11.79 15.0059 11.3685 15.3088Z" fill="#888888"/>
<path d="M23.4496 4.35309C23.0291 3.67663 22.4505 2.97294 21.7392 2.27014C21.0299 1.55042 20.3261 0.97184 19.6441 0.550338C18.1877 -0.350978 16.3221 -0.127055 15.1075 1.0894L10.6951 5.50181C9.63475 6.56114 9.60466 8.2471 10.6255 9.34033C10.9792 9.72044 11.5766 9.74017 11.9548 9.38547C12.334 9.03076 12.3547 8.43526 12 8.05609C11.6754 7.70799 11.6867 7.1708 12.0254 6.83208L16.4377 2.41972C17.0342 1.82417 17.9459 1.71223 18.6533 2.14972C19.2065 2.49219 19.7946 2.97763 20.408 3.59952C21.0233 4.20731 21.5078 4.79531 21.8502 5.34379C22.2877 6.05316 22.1757 6.96483 21.5802 7.56221L17.1678 11.9746C16.8301 12.3124 16.2919 12.3227 15.9438 11.9991C15.5666 11.6453 14.9682 11.6632 14.6144 12.0442C14.2597 12.4243 14.2805 13.0189 14.6596 13.3736C15.193 13.8722 15.8666 14.1206 16.5412 14.1197C17.2487 14.1197 17.9552 13.8478 18.4981 13.3049L22.9105 8.89253C24.127 7.67602 24.3491 5.81039 23.4496 4.35309Z" fill="#888888"/>
<path d="M6.86596 17.1339C7.04943 17.3174 7.29027 17.4096 7.53112 17.4096C7.77196 17.4096 8.0128 17.3174 8.19627 17.1339L16.6635 8.66667C17.0314 8.2988 17.0314 7.70424 16.6635 7.33636C16.2957 6.96849 15.7011 6.96849 15.3332 7.33636L6.86596 15.8037C6.49813 16.1715 6.49813 16.7661 6.86596 17.1339Z" fill="#888888"/>
</svg>
