<svg width="24" height="24" viewBox="0 0 24 24" fill="none" xmlns="http://www.w3.org/2000/svg">
<path d="M23.7699 7.06273L17.4355 0.284546C17.268 0.105652 17.0037 0 16.7226 0C16.4414 0 16.1769 0.105652 16.0099 0.284546L9.67551 7.06273C9.47612 7.27604 9.44541 7.56045 9.59624 7.79753C9.74689 8.03467 10.0534 8.18445 10.3884 8.18445H12.6684V11.5829C12.2219 11.4005 11.7162 11.2969 11.18 11.2969H9.59652C7.79764 11.2969 6.33419 12.4568 6.33419 13.8827V15.3484C5.88765 15.1661 5.38176 15.0624 4.84583 15.0624H3.26227C1.46343 15.0624 0 16.2226 0 17.6484V19.5V21.0938V22.4816V24H19.8897C20.3797 24 20.7768 23.6853 20.7768 23.2969V8.18445H23.057C23.3919 8.18445 23.6985 8.03467 23.8492 7.79753C23.9999 7.56045 23.9693 7.27604 23.7699 7.06273ZM1.7739 21.414V17.6484C1.7739 16.9979 2.44151 16.5809 3.26227 16.5809H4.84583C5.66633 16.5809 6.33397 16.9979 6.33397 17.6484V22.4816H1.7739V21.414ZM8.10835 17.6484V13.8827C8.10835 13.2323 8.77593 12.8153 9.59652 12.8153H11.18C12.0005 12.8153 12.6684 13.2323 12.6684 13.8827V22.4816H8.10835V17.6484ZM19.8897 6.77821C19.3997 6.77821 19.0026 7.09295 19.0026 7.48133V22.4816H14.4425V7.48133C14.4425 7.09295 14.0452 6.77821 13.5555 6.77821H12.1494L16.7226 1.88434L21.296 6.77821H19.8897Z" fill="#888888"/>
</svg>
