<svg width="32" height="21" viewBox="0 0 32 21" fill="none" xmlns="http://www.w3.org/2000/svg">
<path d="M29.7465 2.20878C29.2704 1.95188 28.7329 1.8309 28.1927 1.85909C27.6524 1.88727 27.1304 2.06354 26.6836 2.36859L21 6.18282V3.15C20.9991 2.31486 20.6669 1.51419 20.0763 0.923657C19.4858 0.333122 18.6851 0.000944889 17.85 0H3.15C2.31486 0.000944889 1.51419 0.333122 0.923657 0.923657C0.333122 1.51419 0.000944889 2.31486 0 3.15V17.85C0.000944889 18.6851 0.333122 19.4858 0.923657 20.0763C1.51419 20.6669 2.31486 20.9991 3.15 21H17.85C18.6851 20.9991 19.4858 20.6669 20.0763 20.0763C20.6669 19.4858 20.9991 18.6851 21 17.85V14.817L26.6847 18.6314C27.1304 18.9385 27.6525 19.116 28.193 19.1442C28.7335 19.1725 29.2713 19.0503 29.7465 18.7912C30.2877 18.4907 30.7368 18.0485 31.0457 17.512C31.3547 16.9756 31.5117 16.3651 31.5 15.7462V5.2542C31.5118 4.63521 31.3548 4.02469 31.0459 3.48816C30.7369 2.95164 30.2877 2.50935 29.7465 2.20878ZM18.9 17.85C18.8997 18.1284 18.7889 18.3953 18.5921 18.5921C18.3953 18.7889 18.1284 18.8997 17.85 18.9H3.15C2.87162 18.8997 2.60475 18.7889 2.40791 18.5921C2.21107 18.3953 2.10033 18.1284 2.1 17.85V3.15C2.10033 2.87163 2.21107 2.60475 2.40791 2.40791C2.60475 2.21107 2.87162 2.10033 3.15 2.1H17.85C18.1284 2.10033 18.3953 2.21107 18.5921 2.40791C18.7889 2.60475 18.8997 2.87163 18.9 3.15V17.85ZM29.4 15.7458C29.4113 15.9843 29.3576 16.2214 29.2445 16.4316C29.1314 16.6419 28.9633 16.8174 28.758 16.9394C28.6184 17.0184 28.4591 17.0555 28.299 17.0464C28.1389 17.0373 27.9848 16.9824 27.855 16.8882L21 12.2884V8.71164L27.8538 4.11264C27.9844 4.01981 28.1385 3.96574 28.2985 3.95668C28.4585 3.94761 28.6178 3.98391 28.758 4.0614C28.9631 4.18333 29.1312 4.35874 29.2443 4.56885C29.3574 4.77896 29.4112 5.01586 29.4 5.2542V15.7458Z" fill="#888888"/>
</svg>
