<svg width="24" height="24" viewBox="0 0 24 24" fill="none" xmlns="http://www.w3.org/2000/svg">
<path d="M12 0C11.3445 0 10.532 0.336328 10.0688 0.8L4.46875 6.4H2.8C1.25625 6.4 0 7.83555 0 9.6V14.4C0 16.1645 1.25625 17.6 2.8 17.6H4.46875L10.0688 23.2C10.532 23.6637 11.3445 24 12 24C13.7645 24 15.2 22.5645 15.2 20.8V3.2C15.2 1.43555 13.7645 0 12 0Z" fill="url(#paint0_linear_2_544)"/>
<path d="M4.0002 14.4002C3.5584 14.4002 3.2002 14.042 3.2002 13.6002V10.4002C3.2002 9.95842 3.5584 9.60022 4.0002 9.60022C4.44199 9.60022 4.8002 9.95842 4.8002 10.4002V13.6002C4.8002 14.042 4.44199 14.4002 4.0002 14.4002Z" fill="url(#paint1_linear_2_544)"/>
<path d="M17.5996 18.3999C17.1578 18.3999 16.7996 18.0417 16.7996 17.5999C16.7996 17.1581 17.1578 16.7999 17.5996 16.7999C20.2464 16.7999 22.3996 14.6468 22.3996 11.9999C22.3996 9.35304 20.2464 7.19991 17.5996 7.19991C17.1578 7.19991 16.7996 6.84171 16.7996 6.39991C16.7996 5.95812 17.1578 5.59991 17.5996 5.59991C21.1285 5.59991 23.9996 8.47101 23.9996 11.9999C23.9996 15.5288 21.1285 18.3999 17.5996 18.3999Z" fill="url(#paint2_linear_2_544)"/>
<path d="M17.5996 15.1999C17.1578 15.1999 16.7996 14.8417 16.7996 14.3999C16.7996 13.9581 17.1578 13.5999 17.5996 13.5999C18.482 13.5999 19.1996 12.8823 19.1996 11.9999C19.1996 11.1174 18.482 10.3999 17.5996 10.3999C17.1578 10.3999 16.7996 10.0417 16.7996 9.59987C16.7996 9.15807 17.1578 8.79987 17.5996 8.79987C19.364 8.79987 20.7996 10.2354 20.7996 11.9999C20.7996 13.7643 19.364 15.1999 17.5996 15.1999Z" fill="url(#paint3_linear_2_544)"/>
<defs>
<linearGradient id="paint0_linear_2_544" x1="0" y1="12" x2="15.2" y2="12" gradientUnits="userSpaceOnUse">
<stop stop-color="#42A5F5"/>
<stop offset="1" stop-color="#1E88E5"/>
</linearGradient>
<linearGradient id="paint1_linear_2_544" x1="3.2002" y1="12.0002" x2="4.8002" y2="12.0002" gradientUnits="userSpaceOnUse">
<stop stop-color="#BBDEFB"/>
<stop offset="1" stop-color="#64B5F6"/>
</linearGradient>
<linearGradient id="paint2_linear_2_544" x1="16.7996" y1="11.9999" x2="23.9996" y2="11.9999" gradientUnits="userSpaceOnUse">
<stop stop-color="#BBDEFB"/>
<stop offset="1" stop-color="#64B5F6"/>
</linearGradient>
<linearGradient id="paint3_linear_2_544" x1="16.7996" y1="11.9999" x2="20.7996" y2="11.9999" gradientUnits="userSpaceOnUse">
<stop stop-color="#BBDEFB"/>
<stop offset="1" stop-color="#64B5F6"/>
</linearGradient>
</defs>
</svg>
