<svg width="20" height="24" viewBox="0 0 20 24" fill="none" xmlns="http://www.w3.org/2000/svg">
<path d="M19.5033 19.7915L18.4315 6.28603C18.3647 5.41594 17.6289 4.73433 16.7562 4.73433H14.6392V4.63917C14.6392 2.08111 12.5581 0 10 0C7.44198 0 5.36087 2.08111 5.36087 4.63917V4.73433H3.2439C2.37123 4.73433 1.63534 5.41589 1.56878 6.2842L0.496654 19.7933C0.413685 20.8749 0.788919 21.9518 1.52608 22.7476C2.26323 23.5435 3.30822 24 4.39304 24H15.607C16.6918 24 17.7368 23.5435 18.474 22.7476C19.2112 21.9517 19.5864 20.8749 19.5033 19.7915ZM6.76665 4.63917C6.76665 2.85628 8.2172 1.40578 10 1.40578C11.7829 1.40578 13.2334 2.85633 13.2334 4.63917V4.73433H6.76665V4.63917ZM17.4426 21.7924C16.9637 22.3095 16.3118 22.5942 15.607 22.5942H4.39309C3.68828 22.5942 3.03643 22.3095 2.55747 21.7924C2.07854 21.2753 1.84445 20.6035 1.89826 19.9027L2.97029 6.39352C2.98117 6.25139 3.10136 6.14011 3.2439 6.14011H5.36087V7.87144C5.36087 8.25961 5.67559 8.57433 6.06376 8.57433C6.45193 8.57433 6.76665 8.25961 6.76665 7.87144V6.14011H13.2334V7.87144C13.2334 8.25961 13.5482 8.57433 13.9363 8.57433C14.3245 8.57433 14.6392 8.25961 14.6392 7.87144V6.14011H16.7562C16.8987 6.14011 17.0189 6.25144 17.03 6.39539L18.1018 19.9008C18.1557 20.6035 17.9215 21.2753 17.4426 21.7924Z" fill="#888888"/>
<path d="M13.1667 11.9195C12.8923 11.645 12.4472 11.645 12.1727 11.9195L9.03418 15.0581L7.82734 13.8512C7.55289 13.5767 7.10781 13.5767 6.83331 13.8512C6.55881 14.1257 6.55881 14.5707 6.83331 14.8452L8.53717 16.5491C8.67442 16.6864 8.85432 16.755 9.03414 16.755C9.21395 16.755 9.3939 16.6864 9.53111 16.5491L13.1666 12.9136C13.4412 12.639 13.4412 12.194 13.1667 11.9195Z" fill="#888888"/>
</svg>
