<svg width="28" height="20" viewBox="0 0 28 20" fill="none" xmlns="http://www.w3.org/2000/svg">
<path d="M26.2499 19.9999H1.75001C0.783471 19.9999 0 19.2537 0 18.3332C0 17.4128 0.783471 16.6666 1.75001 16.6666H26.25C27.2165 16.6666 28 17.4128 28 18.3332C27.9999 19.2537 27.2165 19.9999 26.2499 19.9999Z" fill="#969696"/>
<path d="M26.2499 11.6667H1.75001C0.783471 11.6667 0 10.9206 0 10.0001C0 9.07965 0.783471 8.33344 1.75001 8.33344H26.25C27.2165 8.33344 28 9.0796 28 10.0001C28 10.9206 27.2165 11.6667 26.2499 11.6667Z" fill="#969696"/>
<path d="M26.2499 3.33334H1.75001C0.783471 3.33334 0 2.58718 0 1.66667C0 0.746162 0.783471 0 1.75001 0H26.25C27.2165 0 28 0.746162 28 1.66667C28 2.58718 27.2165 3.33334 26.2499 3.33334Z" fill="#969696"/>
</svg>
