<svg width="24" height="24" viewBox="0 0 24 24" fill="none" xmlns="http://www.w3.org/2000/svg">
<path d="M12.8007 2.39954H20.8007V5.59954H12.8007V2.39954Z" fill="url(#paint0_linear_2_559)"/>
<path d="M11.5998 0C10.0561 0 8.7998 1.25625 8.7998 2.80001V5.60001H14.3998V2.80001C14.3998 1.25625 13.1436 0 11.5998 0Z" fill="url(#paint1_linear_2_559)"/>
<path d="M5.40352 4.80001L4.68985 0H0V1.6H3.31016L5.23634 14.5539C5.50118 16.2336 7.09962 17.6 8.80001 17.6H18.4C20.1028 17.6 21.7364 16.3 22.1196 14.6406L23.9797 6.5797L24 4.80001H5.40352Z" fill="url(#paint2_linear_2_559)"/>
<path d="M4.92813 1.6H0V0H4.6879L4.92813 1.6Z" fill="url(#paint3_linear_2_559)"/>
<path d="M19.9997 23.9998C21.3252 23.9998 22.3997 22.9253 22.3997 21.5998C22.3997 20.2743 21.3252 19.1998 19.9997 19.1998C18.6743 19.1998 17.5997 20.2743 17.5997 21.5998C17.5997 22.9253 18.6743 23.9998 19.9997 23.9998Z" fill="url(#paint4_linear_2_559)"/>
<path d="M20.0009 22.3998C20.4428 22.3998 20.8009 22.0417 20.8009 21.5998C20.8009 21.158 20.4428 20.7998 20.0009 20.7998C19.5591 20.7998 19.2009 21.158 19.2009 21.5998C19.2009 22.0417 19.5591 22.3998 20.0009 22.3998Z" fill="url(#paint5_linear_2_559)"/>
<path d="M8.80027 23.9998C10.1258 23.9998 11.2003 22.9253 11.2003 21.5998C11.2003 20.2743 10.1258 19.1998 8.80027 19.1998C7.47479 19.1998 6.40027 20.2743 6.40027 21.5998C6.40027 22.9253 7.47479 23.9998 8.80027 23.9998Z" fill="url(#paint6_linear_2_559)"/>
<path d="M8.79927 22.3998C9.2411 22.3998 9.59927 22.0417 9.59927 21.5998C9.59927 21.158 9.2411 20.7998 8.79927 20.7998C8.35744 20.7998 7.99927 21.158 7.99927 21.5998C7.99927 22.0417 8.35744 22.3998 8.79927 22.3998Z" fill="url(#paint7_linear_2_559)"/>
<defs>
<linearGradient id="paint0_linear_2_559" x1="12.8007" y1="3.99954" x2="20.8007" y2="3.99954" gradientUnits="userSpaceOnUse">
<stop stop-color="#42A5F5"/>
<stop offset="1" stop-color="#1E88E5"/>
</linearGradient>
<linearGradient id="paint1_linear_2_559" x1="8.7998" y1="2.80001" x2="14.3998" y2="2.80001" gradientUnits="userSpaceOnUse">
<stop stop-color="#42A5F5"/>
<stop offset="1" stop-color="#1E88E5"/>
</linearGradient>
<linearGradient id="paint2_linear_2_559" x1="0" y1="8.80001" x2="24" y2="8.80001" gradientUnits="userSpaceOnUse">
<stop stop-color="#BBDEFB"/>
<stop offset="1" stop-color="#64B5F6"/>
</linearGradient>
<linearGradient id="paint3_linear_2_559" x1="0" y1="0.800001" x2="4.92801" y2="0.800001" gradientUnits="userSpaceOnUse">
<stop stop-color="#42A5F5"/>
<stop offset="1" stop-color="#1E88E5"/>
</linearGradient>
<linearGradient id="paint4_linear_2_559" x1="17.5997" y1="21.5998" x2="22.3997" y2="21.5998" gradientUnits="userSpaceOnUse">
<stop stop-color="#42A5F5"/>
<stop offset="1" stop-color="#1E88E5"/>
</linearGradient>
<linearGradient id="paint5_linear_2_559" x1="19.2009" y1="21.5998" x2="20.8009" y2="21.5998" gradientUnits="userSpaceOnUse">
<stop stop-color="#BBDEFB"/>
<stop offset="1" stop-color="#64B5F6"/>
</linearGradient>
<linearGradient id="paint6_linear_2_559" x1="6.40027" y1="21.5998" x2="11.2003" y2="21.5998" gradientUnits="userSpaceOnUse">
<stop stop-color="#42A5F5"/>
<stop offset="1" stop-color="#1E88E5"/>
</linearGradient>
<linearGradient id="paint7_linear_2_559" x1="7.99927" y1="21.5998" x2="9.59927" y2="21.5998" gradientUnits="userSpaceOnUse">
<stop stop-color="#BBDEFB"/>
<stop offset="1" stop-color="#64B5F6"/>
</linearGradient>
</defs>
</svg>
