<svg width="24" height="22" viewBox="0 0 24 22" fill="none" xmlns="http://www.w3.org/2000/svg">
<path d="M21.635 2.98861C21.5057 1.31912 20.1069 0 18.4048 0H3.24103C1.45392 0 0 1.45392 0 3.24103V18.2365C0 20.0237 1.45392 21.4776 3.24103 21.4776H20.759C22.5461 21.4776 24 20.0237 24 18.2365V6.10833C24 4.62483 22.9977 3.37186 21.635 2.98861ZM3.24103 1.51406H18.4049C19.2288 1.51406 19.9193 2.09418 20.0907 2.86734H3.24103C2.6065 2.86734 2.01445 3.05135 1.51406 3.36779V3.24103C1.51406 2.28878 2.28878 1.51406 3.24103 1.51406ZM20.759 19.9635H3.24103C2.28878 19.9635 1.51406 19.1888 1.51406 18.2365V6.10833C1.51406 5.15608 2.28878 4.38135 3.24103 4.38135H20.759C21.7113 4.38135 22.486 5.15608 22.486 6.10833V8.75026H17.6587C15.7458 8.75026 14.1895 10.3066 14.1895 12.2195C14.1895 14.1324 15.7458 15.6887 17.6587 15.6887H22.4859V18.2365C22.4859 19.1888 21.7112 19.9635 20.759 19.9635ZM22.4859 14.1747H17.6587C16.5806 14.1747 15.7036 13.2976 15.7036 12.2195C15.7036 11.1414 16.5806 10.2643 17.6587 10.2643H22.4859V14.1747Z" fill="#888888"/>
<path d="M17.9397 13.0651C18.375 13.0651 18.7279 12.7122 18.7279 12.2769C18.7279 11.8416 18.375 11.4888 17.9397 11.4888C17.5044 11.4888 17.1516 11.8416 17.1516 12.2769C17.1516 12.7122 17.5044 13.0651 17.9397 13.0651Z" fill="#888888"/>
</svg>
