<svg width="23" height="24" viewBox="0 0 23 24" fill="none" xmlns="http://www.w3.org/2000/svg">
<path d="M22.2856 6.40085C22.2856 8.11068 21.6234 9.71809 20.4207 10.9271L8.95128 22.5934C8.01844 23.5311 6.79349 24 5.56934 24C4.34679 24 3.12423 23.5319 2.19378 22.5966C0.332086 20.7244 0.332086 17.6792 2.19378 15.8077L10.4795 7.5258C11.7235 6.28324 13.7006 6.24243 14.889 7.43539C15.4692 8.01867 15.7748 8.80597 15.7502 9.65329C15.7255 10.4822 15.3856 11.2679 14.7926 11.864L6.9296 19.7682C6.61839 20.0811 6.11536 20.0811 5.80415 19.7682C5.49293 19.4554 5.49293 18.9497 5.80415 18.6369L13.6672 10.7326C13.972 10.4262 14.1471 10.0261 14.1591 9.60608C14.171 9.20443 14.0301 8.83478 13.7635 8.56674C13.1944 7.99707 12.225 8.03787 11.6025 8.66035L3.31764 16.9407C2.07837 18.1872 2.07837 20.2179 3.31923 21.4653C4.56089 22.7126 6.58018 22.7126 7.82184 21.4653L19.2913 9.79891C20.1971 8.88838 20.6937 7.68342 20.6937 6.40085C20.6937 5.11828 20.1971 3.91332 19.2953 3.0068C18.3927 2.09948 17.194 1.60021 15.9181 1.60021C14.6422 1.60021 13.4435 2.09948 12.5409 3.0068L1.35646 14.1699C1.04365 14.4811 0.540622 14.4795 0.231002 14.1651C-0.0786166 13.8514 -0.0770246 13.3458 0.234982 13.0337L11.4179 1.87305C12.6182 0.665689 14.2172 0 15.9181 0C17.619 0 19.2181 0.665689 20.4207 1.87545C21.6234 3.08361 22.2856 4.69103 22.2856 6.40085Z" fill="#A9A9A9"/>
</svg>
