<svg width="24" height="24" viewBox="0 0 24 24" fill="none" xmlns="http://www.w3.org/2000/svg">
<path d="M12.0002 0.799683C5.82439 0.799683 0.800171 5.8239 0.800171 11.9997C0.800171 18.1755 5.82439 23.1997 12.0002 23.1997C18.1763 23.1997 23.2002 18.1755 23.2002 11.9997C23.2002 5.8239 18.1763 0.799683 12.0002 0.799683Z" fill="url(#paint0_linear_2_505)"/>
<path d="M12.7422 22.3738C12.4973 22.3914 12.2496 22.4 12 22.4C6.26523 22.4 1.6 17.7348 1.6 12C1.6 6.26523 6.26523 1.6 12 1.6C15.5512 1.6 18.8594 3.45 20.7562 6.4H17.6V8H23.2V2.4H21.6V4.81445C19.3574 1.83477 15.7996 0 12 0C5.3832 0 0 5.3832 0 12C0 18.6168 5.3832 24 12 24C12.2879 24 12.573 23.9898 12.8555 23.9699L13.6535 23.9133L13.5402 22.3172L12.7422 22.3738Z" fill="url(#paint1_linear_2_505)"/>
<path d="M17.6207 20.7507C17.205 21.0183 16.7671 21.2581 16.3199 21.4628L15.5925 21.7956L16.2582 23.2503L16.9855 22.9175C17.5019 22.6812 18.0074 22.405 18.4871 22.096L19.1597 21.6628L18.2933 20.3175L17.6207 20.7507Z" fill="url(#paint2_linear_2_505)"/>
<path d="M21.1299 16.9847C20.8924 17.4183 20.6217 17.8382 20.326 18.2327L19.8459 18.8726L21.1256 19.8327L21.6057 19.1929C21.9471 18.7378 22.2592 18.2534 22.5331 17.7526L22.9174 17.0511L21.5139 16.2827L21.1299 16.9847Z" fill="url(#paint3_linear_2_505)"/>
<path d="M22.3998 11.2003V12.0003C22.3998 12.4964 22.3646 12.9948 22.2951 13.4816L22.1826 14.2738L23.7666 14.4991L23.8795 13.7073C23.9592 13.146 23.9998 12.5714 23.9998 12.0003V11.2003H22.3998Z" fill="url(#paint4_linear_2_505)"/>
<path d="M12.7997 12.7998H5.59973V11.1998H11.1997V3.99982H12.7997V12.7998Z" fill="url(#paint5_linear_2_505)"/>
<path d="M12.0001 13.5999C12.8838 13.5999 13.6001 12.8836 13.6001 11.9999C13.6001 11.1162 12.8838 10.3999 12.0001 10.3999C11.1165 10.3999 10.4001 11.1162 10.4001 11.9999C10.4001 12.8836 11.1165 13.5999 12.0001 13.5999Z" fill="url(#paint6_linear_2_505)"/>
<defs>
<linearGradient id="paint0_linear_2_505" x1="0.800171" y1="11.9997" x2="23.2002" y2="11.9997" gradientUnits="userSpaceOnUse">
<stop stop-color="#BBDEFB"/>
<stop offset="1" stop-color="#64B5F6"/>
</linearGradient>
<linearGradient id="paint1_linear_2_505" x1="0" y1="12" x2="23.2" y2="12" gradientUnits="userSpaceOnUse">
<stop stop-color="#42A5F5"/>
<stop offset="1" stop-color="#1E88E5"/>
</linearGradient>
<linearGradient id="paint2_linear_2_505" x1="15.5924" y1="21.7839" x2="19.1596" y2="21.7839" gradientUnits="userSpaceOnUse">
<stop stop-color="#42A5F5"/>
<stop offset="1" stop-color="#1E88E5"/>
</linearGradient>
<linearGradient id="paint3_linear_2_505" x1="19.8458" y1="18.0575" x2="22.917" y2="18.0575" gradientUnits="userSpaceOnUse">
<stop stop-color="#42A5F5"/>
<stop offset="1" stop-color="#1E88E5"/>
</linearGradient>
<linearGradient id="paint4_linear_2_505" x1="22.183" y1="12.8499" x2="23.9998" y2="12.8499" gradientUnits="userSpaceOnUse">
<stop stop-color="#42A5F5"/>
<stop offset="1" stop-color="#1E88E5"/>
</linearGradient>
<linearGradient id="paint5_linear_2_505" x1="5.59973" y1="8.39982" x2="12.7997" y2="8.39982" gradientUnits="userSpaceOnUse">
<stop stop-color="#42A5F5"/>
<stop offset="1" stop-color="#1E88E5"/>
</linearGradient>
<linearGradient id="paint6_linear_2_505" x1="10.4001" y1="11.9999" x2="13.6001" y2="11.9999" gradientUnits="userSpaceOnUse">
<stop stop-color="#42A5F5"/>
<stop offset="1" stop-color="#1E88E5"/>
</linearGradient>
</defs>
</svg>
