<svg width="16" height="16" viewBox="0 0 16 16" fill="none" xmlns="http://www.w3.org/2000/svg">
<path d="M11.4286 2.85693H1.71428C0.767511 2.85693 0 3.62444 0 4.57122V14.2855C0 15.2323 0.767511 15.9998 1.71428 15.9998H11.4286C12.3753 15.9998 13.1428 15.2323 13.1428 14.2855V4.57122C13.1428 3.62444 12.3753 2.85693 11.4286 2.85693Z" fill="white"/>
<path d="M14.2856 1.10693e-09H3.99993C3.05828 -3.3481e-05 2.29288 0.759508 2.28564 1.70113C2.28564 1.70571 2.28564 1.7097 2.28564 1.71428H11.4285C13.0057 1.71616 14.2838 2.99424 14.2856 4.57141V13.7143C14.2902 13.7143 14.2942 13.7143 14.2988 13.7143C15.2404 13.707 16 12.9416 15.9999 12V1.71428C15.9999 0.767511 15.2324 1.10693e-09 14.2856 1.10693e-09Z" fill="white"/>
</svg>
