<svg width="10" height="10" viewBox="0 0 10 10" fill="none" xmlns="http://www.w3.org/2000/svg">
<path d="M0.947952 9.93747C0.70278 9.95172 0.461663 9.87022 0.275444 9.71014C-0.0918148 9.34069 -0.0918148 8.74401 0.275444 8.37457L8.31722 0.332767C8.6992 -0.0246665 9.29859 -0.00479702 9.65603 0.377185C9.97924 0.72261 9.99808 1.25354 9.70013 1.62098L1.61098 9.71014C1.42716 9.86791 1.18991 9.94926 0.947952 9.93747Z" fill="#0078FF"/>
<path d="M8.98026 9.93746C8.73178 9.9364 8.49363 9.83777 8.3172 9.66278L0.275398 1.62095C-0.0648481 1.22362 -0.0185898 0.625662 0.378739 0.285384C0.733365 -0.0183051 1.25637 -0.0183051 1.61096 0.285384L9.70012 8.32719C10.082 8.68472 10.1018 9.28414 9.74422 9.66603C9.73 9.68122 9.71531 9.69591 9.70012 9.71013C9.50204 9.88238 9.24137 9.9647 8.98026 9.93746Z" fill="#0078FF"/>
</svg>
