<svg width="10" height="10" viewBox="0 0 10 10" fill="none" xmlns="http://www.w3.org/2000/svg">
<path d="M0.947954 9.99474C0.702781 10.0092 0.461664 9.9267 0.275445 9.76476C-0.091815 9.39102 -0.091815 8.7874 0.275445 8.41365L8.31723 0.278262C8.69921 -0.0833316 9.29861 -0.0632308 9.65604 0.323197C9.97926 0.672641 9.9981 1.20975 9.70015 1.58147L1.61098 9.76476C1.42716 9.92437 1.18991 10.0067 0.947954 9.99474Z" fill="white"/>
<path d="M8.98012 9.99477C8.73164 9.99369 8.49349 9.89391 8.31707 9.71689L0.275246 1.58146C-0.0650009 1.17951 -0.0187425 0.574594 0.378587 0.230356C0.733214 -0.0768669 1.25622 -0.0768669 1.61081 0.230356L9.69998 8.36575C10.0819 8.72744 10.1016 9.33384 9.74409 9.72017C9.72986 9.73554 9.71517 9.7504 9.69998 9.76479C9.50191 9.93904 9.24123 10.0223 8.98012 9.99477Z" fill="white"/>
</svg>
