<svg width="16" height="16" viewBox="0 0 16 16" fill="none" xmlns="http://www.w3.org/2000/svg">
<path d="M0.780969 15.9996C0.626431 15.9996 0.475356 15.9538 0.346853 15.868C0.218351 15.7822 0.118193 15.6601 0.0590504 15.5174C-9.25846e-05 15.3746 -0.0155642 15.2175 0.0145926 15.0659C0.0447493 14.9143 0.11918 14.7751 0.228469 14.6659L14.666 0.228365C14.8125 0.0818326 15.0112 -0.000488281 15.2185 -0.000488281C15.4257 -0.000488281 15.6244 0.0818326 15.771 0.228365C15.9175 0.374897 15.9998 0.573637 15.9998 0.780865C15.9998 0.988092 15.9175 1.18683 15.771 1.33336L1.33347 15.7709C1.26098 15.8435 1.17486 15.9011 1.08004 15.9404C0.985225 15.9796 0.883589 15.9998 0.780969 15.9996Z" fill="#86C0FF"/>
<path d="M15.2186 15.9996C15.116 15.9998 15.0144 15.9796 14.9195 15.9404C14.8247 15.9011 14.7386 15.8435 14.6661 15.7709L0.228609 1.33336C0.0820768 1.18683 -0.000244141 0.988092 -0.000244141 0.780865C-0.000244141 0.573637 0.0820768 0.374897 0.228609 0.228365C0.375141 0.0818326 0.573881 -0.000488281 0.781109 -0.000488281C0.988337 -0.000488281 1.18708 0.0818326 1.33361 0.228365L15.7711 14.6659C15.8804 14.7751 15.9548 14.9143 15.985 15.0659C16.0151 15.2175 15.9997 15.3746 15.9405 15.5174C15.8814 15.6601 15.7812 15.7822 15.6527 15.868C15.5242 15.9538 15.3731 15.9996 15.2186 15.9996Z" fill="#86C0FF"/>
</svg>
