<svg width="14" height="16" viewBox="0 0 14 16" fill="none" xmlns="http://www.w3.org/2000/svg">
<path d="M7.00056 15.9998C6.89426 15.9998 6.78858 15.9724 6.69334 15.9173L0.307711 12.2251C0.11754 12.1152 0.000488281 11.9118 0.000488281 11.6921V4.30758C0.000488281 4.08789 0.11754 3.88451 0.307711 3.77467L6.69334 0.082384C6.88351 -0.0274613 7.11761 -0.0274613 7.30778 0.082384L13.6928 3.77467C13.883 3.88451 14 4.08789 14 4.30758V11.6921C14 11.9118 13.883 12.1152 13.6928 12.2251L7.30778 15.9173C7.21255 15.9724 7.10686 15.9998 7.00056 15.9998ZM1.22938 11.3368L7.00056 14.6737L12.7711 11.3368V4.66297L7.00056 1.32607L1.22938 4.66297V11.3368Z" fill="#888888"/>
<path d="M7.00068 16.0001C6.6615 16.0001 6.38623 15.7244 6.38623 15.3847V8.00015C6.38623 7.66046 6.6615 7.38477 7.00068 7.38477C7.33985 7.38477 7.61512 7.66046 7.61512 8.00015V15.3847C7.61512 15.7244 7.33985 16.0001 7.00068 16.0001Z" fill="#888888"/>
<path d="M6.99963 8.61526C6.89549 8.61526 6.7898 8.5888 6.69303 8.53249L0.307396 4.84021C0.0133832 4.67067 -0.0870787 4.29437 0.0822012 3.99991C0.252095 3.70545 0.6266 3.60422 0.921535 3.77468L7.30716 7.46696C7.60118 7.63681 7.70164 8.01311 7.53205 8.30757C7.41838 8.50511 7.21193 8.61526 6.99963 8.61526Z" fill="#888888"/>
<path d="M7.00137 8.61529C6.78908 8.61529 6.58263 8.50483 6.46865 8.3076C6.29906 8.01314 6.39952 7.63684 6.69353 7.46699L13.0785 3.77471C13.3723 3.60425 13.748 3.70548 13.9179 3.99994C14.0875 4.2944 13.987 4.6707 13.693 4.84055L7.30798 8.53283C7.21151 8.58883 7.10552 8.61529 7.00137 8.61529Z" fill="#888888"/>
</svg>
