<svg width="13" height="16" viewBox="0 0 13 16" fill="none" xmlns="http://www.w3.org/2000/svg">
<path d="M3 16C2.4 16 2 15.6 2 15V8H1C0.4 8 0 7.6 0 7C0 6.4 0.4 6 1 6H2V1C2 0.4 2.4 0 3 0H9C10.1 0 11.1 0.4 11.8 1.2C12.6 1.9 13 2.9 13 4C13 5.1 12.6 6.1 11.8 6.8C11.1 7.6 10.1 8 9 8H4V15C4 15.6 3.6 16 3 16ZM4 6H9C9.5 6 10 5.8 10.4 5.4C10.8 5 11 4.5 11 4C11 3.5 10.8 3 10.4 2.6C10 2.2 9.5 2 9 2H4V6Z" fill="#969696"/>
<path d="M9 12H1C0.4 12 0 11.6 0 11C0 10.4 0.4 10 1 10H9C9.6 10 10 10.4 10 11C10 11.6 9.6 12 9 12Z" fill="#969696"/>
</svg>
