<svg width="16" height="9" viewBox="0 0 16 9" fill="none" xmlns="http://www.w3.org/2000/svg">
<path d="M10.9957 0.238001C10.6853 -0.075851 10.1795 -0.0798102 9.86431 0.22918L3.95096 6.07355L1.38038 3.41236C1.07378 3.09281 0.566209 3.08232 0.246696 3.38892C-0.0728511 3.69551 -0.0833394 4.20308 0.223254 4.5226C0.224643 4.52402 0.225998 4.52545 0.227387 4.52687L3.36167 7.77499C3.51166 7.92801 3.71667 8.01466 3.93096 8.01553H3.93978C4.15 8.01487 4.35157 7.93166 4.50104 7.78382L10.9884 1.36935C11.3019 1.05852 11.3051 0.552825 10.9957 0.238001Z" fill="#868686"/>
<path d="M8.17246 7.77505C8.32208 7.92768 8.52643 8.01426 8.74015 8.01558H8.74897C8.95919 8.01492 9.16076 7.93171 9.31024 7.78387L15.7977 1.36941C16.0917 1.03829 16.0617 0.531519 15.7306 0.237464C15.4304 -0.0291212 14.9794 -0.0326289 14.6751 0.229233L8.76419 6.07361L8.55331 5.85471C8.24675 5.53516 7.73917 5.52464 7.41963 5.83123C7.10008 6.13779 7.08956 6.64536 7.39615 6.96491C7.39754 6.96637 7.39893 6.96779 7.40032 6.96921L8.17246 7.77505Z" fill="#868686"/>
</svg>
