<svg width="24" height="24" viewBox="0 0 24 24" fill="none" xmlns="http://www.w3.org/2000/svg">
<path d="M22.1511 15.0169C21.8209 15.0169 21.5533 15.2845 21.5533 15.6146V20.9218C21.5522 21.9117 20.7501 22.714 19.7602 22.7149H2.98862C1.99864 22.714 1.19662 21.9117 1.19545 20.9218V5.34568C1.19662 4.35593 1.99864 3.55367 2.98862 3.5525H8.29576C8.62591 3.5525 8.89348 3.28493 8.89348 2.95478C8.89348 2.62486 8.62591 2.35706 8.29576 2.35706H2.98862C1.33881 2.35892 0.00186789 3.69586 0 5.34568V20.922C0.00186789 22.5718 1.33881 23.9088 2.98862 23.9106H19.7602C21.41 23.9088 22.7469 22.5718 22.7488 20.922V15.6146C22.7488 15.2845 22.4812 15.0169 22.1511 15.0169Z" fill="#0078FF"/>
<path d="M22.5121 0.81909C21.4616 -0.231363 19.7586 -0.231363 18.7081 0.81909L8.04433 11.4829C7.97124 11.5559 7.91848 11.6465 7.89093 11.746L6.48861 16.8087C6.43094 17.0163 6.48954 17.2385 6.64178 17.391C6.79424 17.5432 7.01652 17.6018 7.22409 17.5444L12.2868 16.1418C12.3862 16.1143 12.4768 16.0615 12.5499 15.9884L23.2134 5.32444C24.2623 4.27328 24.2623 2.57164 23.2134 1.52048L22.5121 0.81909ZM9.34671 11.8714L18.0742 3.14368L20.8889 5.95835L12.1612 14.6861L9.34671 11.8714ZM8.78448 12.9996L11.0332 15.2485L7.92268 16.1103L8.78448 12.9996ZM22.3682 4.47922L21.7343 5.11313L18.9194 2.29822L19.5536 1.66431C20.137 1.08083 21.0831 1.08083 21.6666 1.66431L22.3682 2.3657C22.9508 2.94988 22.9508 3.89527 22.3682 4.47922Z" fill="#0078FF"/>
</svg>
