<svg width="32" height="28" viewBox="0 0 32 28" fill="none" xmlns="http://www.w3.org/2000/svg">
<path d="M28.1612 4.75385H23.702L23.1828 3.19616C22.9325 2.43981 22.45 1.7817 21.804 1.31556C21.1579 0.849424 20.3812 0.599016 19.5845 0.600001H13.1689C12.3725 0.599393 11.5961 0.849963 10.9503 1.31606C10.3044 1.78217 9.82203 2.44006 9.57169 3.19616L9.05142 4.75385H4.59227C3.58678 4.75495 2.62279 5.15486 1.91181 5.86585C1.20082 6.57683 0.800904 7.54082 0.799805 8.54631V23.8117C0.802003 24.8165 1.2024 25.7794 1.91327 26.4895C2.62414 27.1996 3.5875 27.5989 4.59227 27.6H28.1653C29.1701 27.5978 30.133 27.1974 30.8431 26.4865C31.5532 25.7757 31.9526 24.8123 31.9536 23.8075V8.54215C31.9515 7.53739 31.5511 6.57447 30.8402 5.86438C30.1293 5.15429 29.166 4.75494 28.1612 4.75385ZM29.8767 23.8075C29.8762 24.2624 29.6953 24.6984 29.3736 25.02C29.052 25.3416 28.616 25.5225 28.1612 25.5231H4.59227C4.13745 25.5225 3.70141 25.3416 3.3798 25.02C3.0582 24.6984 2.87728 24.2624 2.87673 23.8075V8.54215C2.87837 8.08805 3.05978 7.65309 3.38127 7.33238C3.70276 7.01167 4.13816 6.83132 4.59227 6.83077H9.80015C10.018 6.8306 10.2303 6.76192 10.407 6.63445C10.5837 6.50697 10.7158 6.32716 10.7846 6.12046L11.5416 3.84935C11.6553 3.50774 11.8737 3.21063 12.1658 3.00017C12.4579 2.78972 12.8089 2.67662 13.1689 2.67692H19.5845C19.9447 2.67653 20.2959 2.78972 20.588 3.0004C20.8802 3.21107 21.0984 3.5085 21.2118 3.85039L21.9688 6.12046C22.0377 6.32716 22.1698 6.50697 22.3465 6.63445C22.5231 6.76192 22.7354 6.8306 22.9533 6.83077H28.1612C28.616 6.83132 29.052 7.01224 29.3736 7.33385C29.6953 7.65545 29.8762 8.09149 29.8767 8.54631V23.8075Z" fill="#969696"/>
<path d="M16.3773 7.86934C14.8369 7.86934 13.3311 8.32612 12.0503 9.18193C10.7695 10.0377 9.77122 11.2541 9.18173 12.6773C8.59224 14.1004 8.438 15.6664 8.73852 17.1773C9.03904 18.6881 9.78082 20.0758 10.8701 21.1651C11.9593 22.2543 13.3471 22.9961 14.8579 23.2966C16.3687 23.5971 17.9347 23.4429 19.3578 22.8534C20.781 22.2639 21.9974 21.2656 22.8532 19.9848C23.709 18.704 24.1658 17.1982 24.1658 15.6578C24.1636 13.5928 23.3423 11.6131 21.8822 10.153C20.422 8.69281 18.4423 7.87154 16.3773 7.86934ZM16.3773 21.3693C15.2477 21.3693 14.1434 21.0344 13.2042 20.4068C12.2649 19.7792 11.5329 18.8872 11.1006 17.8435C10.6683 16.7999 10.5552 15.6515 10.7755 14.5435C10.9959 13.4356 11.5399 12.4179 12.3387 11.6191C13.1374 10.8204 14.1551 10.2764 15.2631 10.056C16.371 9.83563 17.5194 9.94873 18.563 10.381C19.6067 10.8133 20.4987 11.5454 21.1263 12.4846C21.7539 13.4239 22.0889 14.5282 22.0889 15.6578C22.0872 17.1721 21.4849 18.6239 20.4142 19.6946C19.3434 20.7654 17.8916 21.3677 16.3773 21.3693Z" fill="#969696"/>
<path d="M26.7601 10.9842C27.3337 10.9842 27.7986 10.5193 27.7986 9.94579C27.7986 9.37226 27.3337 8.90733 26.7601 8.90733C26.1866 8.90733 25.7217 9.37226 25.7217 9.94579C25.7217 10.5193 26.1866 10.9842 26.7601 10.9842Z" fill="#969696"/>
</svg>
