<svg width="36" height="24" viewBox="0 0 36 24" fill="none" xmlns="http://www.w3.org/2000/svg">
<path d="M33.1461 2.76121C32.6156 2.47495 32.0166 2.34015 31.4147 2.37156C30.8127 2.40296 30.231 2.59938 29.7332 2.93929L23.4 7.18943V3.81C23.3989 2.87942 23.0288 1.98725 22.3708 1.32922C21.7128 0.671196 20.8206 0.301056 19.89 0.300003H3.51C2.57941 0.301056 1.68724 0.671196 1.02922 1.32922C0.371194 1.98725 0.00105288 2.87942 0 3.81V20.19C0.00105288 21.1206 0.371194 22.0128 1.02922 22.6708C1.68724 23.3288 2.57941 23.6989 3.51 23.7H19.89C20.8206 23.6989 21.7128 23.3288 22.3708 22.6708C23.0288 22.0128 23.3989 21.1206 23.4 20.19V16.8103L29.7344 21.0607C30.231 21.4029 30.8128 21.6007 31.4151 21.6322C32.0173 21.6636 32.6166 21.5274 33.1461 21.2388C33.7491 20.9039 34.2496 20.4111 34.5938 19.8134C34.9381 19.2156 35.113 18.5354 35.1 17.8458V6.15468C35.1131 5.46495 34.9382 4.78465 34.594 4.18681C34.2497 3.58897 33.7492 3.09614 33.1461 2.76121ZM21.06 20.19C21.0596 20.5002 20.9362 20.7976 20.7169 21.0169C20.4976 21.2362 20.2002 21.3596 19.89 21.36H3.51C3.19981 21.3596 2.90243 21.2362 2.6831 21.0169C2.46376 20.7976 2.34037 20.5002 2.34 20.19V3.81C2.34037 3.49981 2.46376 3.20244 2.6831 2.9831C2.90243 2.76376 3.19981 2.64037 3.51 2.64H19.89C20.2002 2.64037 20.4976 2.76376 20.7169 2.9831C20.9362 3.20244 21.0596 3.49981 21.06 3.81V20.19ZM32.76 17.8453C32.7727 18.1111 32.7128 18.3752 32.5867 18.6095C32.4607 18.8438 32.2733 19.0394 32.0447 19.1754C31.8891 19.2633 31.7116 19.3047 31.5332 19.2946C31.3548 19.2844 31.1831 19.2232 31.0385 19.1183L23.4 13.9927V10.0073L31.0371 4.88266C31.1826 4.77921 31.3544 4.71897 31.5326 4.70887C31.7109 4.69877 31.8884 4.73922 32.0447 4.82556C32.2732 4.96143 32.4605 5.15689 32.5865 5.39101C32.7125 5.62513 32.7725 5.8891 32.76 6.15468V17.8453Z" fill="#969696"/>
</svg>
