<svg width="24" height="24" viewBox="0 0 24 24" fill="none" xmlns="http://www.w3.org/2000/svg">
<path d="M23.0614 0H0.9375C0.419678 0 0 0.419678 0 0.9375C0 3.54822 1.11914 6.04065 3.0705 7.77521L7.17627 11.4245C7.88818 12.0573 8.29651 12.9666 8.29651 13.9193V23.0614C8.29651 23.8085 9.13147 24.2563 9.75385 23.8412L15.2849 20.1541C15.5457 19.9801 15.7024 19.6875 15.7024 19.374V13.9193C15.7024 12.9666 16.1107 12.0573 16.8226 11.4245L20.9282 7.77521C22.8796 6.04065 23.9987 3.54822 23.9987 0.9375C23.9987 0.419678 23.579 0 23.0614 0ZM19.6826 6.37372L15.577 10.0232C14.4651 11.0116 13.8274 12.4316 13.8274 13.9191V18.8723L10.1713 21.3096V13.9193C10.1713 12.4316 9.53357 11.0116 8.42175 10.0232L4.31616 6.3739C3.00037 5.20404 2.16046 3.60114 1.93561 1.87482H22.0631C21.8383 3.60114 20.9985 5.20404 19.6826 6.37372Z" fill="#969696"/>
</svg>
