<svg width="24" height="24" viewBox="0 0 24 24" fill="none" xmlns="http://www.w3.org/2000/svg">
<path d="M23.3321 15.9478C23.7642 14.7109 24 13.3826 24 12C24 10.6174 23.7642 9.2891 23.3321 8.05218C23.3216 8.01502 23.3091 7.97878 23.2939 7.94392C21.6272 3.3172 17.194 0 12 0C6.80603 0 2.37273 3.3172 0.706085 7.94392C0.690947 7.9789 0.678332 8.01502 0.667896 8.05218C0.235782 9.2891 0 10.6174 0 12C0 13.3826 0.235782 14.7109 0.667896 15.9478C0.678447 15.985 0.690947 16.0212 0.706085 16.0561C2.37284 20.6829 6.80603 24 12 24C17.194 24 21.6272 20.6828 23.2939 16.0561C23.3091 16.0212 23.3216 15.9851 23.3321 15.9478ZM12 22.2799C11.543 22.2799 10.8062 21.4529 10.1904 19.6052C9.8931 18.7135 9.65514 17.6885 9.48174 16.5735H14.5183C14.3449 17.6885 14.1069 18.7134 13.8098 19.6052C13.1938 21.4529 12.457 22.2799 12 22.2799ZM9.27303 14.8533C9.19034 13.9361 9.14665 12.9792 9.14665 12C9.14665 11.0208 9.19034 10.0639 9.27303 9.14668H14.7269C14.8095 10.0639 14.8532 11.0208 14.8532 12C14.8532 12.9792 14.8095 13.9361 14.7269 14.8533H9.27303ZM1.72009 12.0001C1.72009 11.0104 1.86103 10.0531 2.1233 9.14679H7.54766C7.46727 10.0829 7.42645 11.0423 7.42645 12.0001C7.42645 12.9579 7.46716 13.9173 7.54766 14.8534H2.1233C1.86103 13.947 1.72009 12.9898 1.72009 12.0001ZM12 1.72018C12.457 1.72018 13.1939 2.54725 13.8098 4.39495C14.1069 5.28658 14.345 6.31158 14.5183 7.42649H9.48163C9.65502 6.31147 9.89299 5.28658 10.1902 4.39495C10.8062 2.54725 11.543 1.72018 12 1.72018ZM16.4522 9.14679H21.8766C22.1389 10.0531 22.2798 11.0104 22.2798 12.0001C22.2798 12.9898 22.1389 13.9471 21.8766 14.8534H16.4522C16.5326 13.9173 16.5734 12.9579 16.5734 12.0001C16.5734 11.0423 16.5326 10.0829 16.4522 9.14679ZM21.2044 7.42661H16.2549C15.9489 5.31686 15.424 3.42408 14.6876 2.07752C17.5426 2.85149 19.9079 4.82752 21.2044 7.42661ZM9.31225 2.07741C8.57589 3.42397 8.05099 5.31674 7.74503 7.42661H2.79544C4.09213 4.82752 6.45729 2.85149 9.31225 2.07741ZM2.79544 16.5735H7.74503C8.05099 18.6833 8.57589 20.576 9.31225 21.9227C6.45729 21.1486 4.09213 19.1727 2.79544 16.5735ZM14.6876 21.9227C15.424 20.5761 15.9489 18.6834 16.2549 16.5735H21.2044C19.9079 19.1727 17.5426 21.1486 14.6876 21.9227Z" fill="#888888"/>
</svg>
