<svg width="18" height="24" viewBox="0 0 18 24" fill="none" xmlns="http://www.w3.org/2000/svg">
<path d="M14.3998 11.2003H3.19996C1.43553 11.2003 0 12.6358 0 14.4003V20.8002C0 22.5646 1.43553 24.0002 3.19996 24.0002H14.3998C16.1643 24.0002 17.5998 22.5646 17.5998 20.8002V14.4003C17.5998 12.6358 16.1643 11.2003 14.3998 11.2003Z" fill="url(#paint0_linear_2_597)"/>
<path d="M4.00019 9.59988C4.44198 9.59988 4.80018 9.24168 4.80018 8.79989V5.59993C4.80018 3.39449 6.59469 1.59998 8.80013 1.59998C11.0056 1.59998 12.8001 3.39449 12.8001 5.59993V8.79989C12.8001 9.24168 13.1583 9.59988 13.6001 9.59988C14.0419 9.59988 14.4001 9.24168 14.4001 8.79989V5.59993C14.4001 2.51208 11.888 0 8.80013 0C5.71227 0 3.2002 2.51208 3.2002 5.59993V8.79989C3.2002 9.24168 3.55839 9.59988 4.00019 9.59988Z" fill="url(#paint1_linear_2_597)"/>
<path d="M8.80091 15.1999C7.9185 15.1999 7.20093 15.9175 7.20093 16.7999C7.20093 17.3897 7.52514 17.8999 8.00092 18.1772V19.1999C8.00092 19.6417 8.35912 19.9999 8.80091 19.9999C9.2427 19.9999 9.6009 19.6417 9.6009 19.1999V18.1772C10.0767 17.8999 10.4009 17.3897 10.4009 16.7999C10.4009 15.9175 9.68332 15.1999 8.80091 15.1999Z" fill="url(#paint2_linear_2_597)"/>
<defs>
<linearGradient id="paint0_linear_2_597" x1="0" y1="17.6002" x2="17.5998" y2="17.6002" gradientUnits="userSpaceOnUse">
<stop stop-color="#BBDEFB"/>
<stop offset="1" stop-color="#64B5F6"/>
</linearGradient>
<linearGradient id="paint1_linear_2_597" x1="3.2002" y1="4.79994" x2="14.4001" y2="4.79994" gradientUnits="userSpaceOnUse">
<stop stop-color="#42A5F5"/>
<stop offset="1" stop-color="#1E88E5"/>
</linearGradient>
<linearGradient id="paint2_linear_2_597" x1="7.20093" y1="17.5999" x2="10.4009" y2="17.5999" gradientUnits="userSpaceOnUse">
<stop stop-color="#42A5F5"/>
<stop offset="1" stop-color="#1E88E5"/>
</linearGradient>
</defs>
</svg>
