<svg width="20" height="5" viewBox="0 0 20 5" fill="none" xmlns="http://www.w3.org/2000/svg">
<g opacity="0.3">
<path d="M10 4.5C11.3807 4.5 12.5 3.60457 12.5 2.5C12.5 1.39543 11.3807 0.5 10 0.5C8.61929 0.5 7.5 1.39543 7.5 2.5C7.5 3.60457 8.61929 4.5 10 4.5Z" fill="black"/>
<path d="M17.5 4.5C18.8807 4.5 20 3.60457 20 2.5C20 1.39543 18.8807 0.5 17.5 0.5C16.1193 0.5 15 1.39543 15 2.5C15 3.60457 16.1193 4.5 17.5 4.5Z" fill="black"/>
<path d="M2.5 4.5C3.88071 4.5 5 3.60457 5 2.5C5 1.39543 3.88071 0.5 2.5 0.5C1.11929 0.5 0 1.39543 0 2.5C0 3.60457 1.11929 4.5 2.5 4.5Z" fill="black"/>
</g>
</svg>
