<svg width="19" height="19" viewBox="0 0 19 19" fill="none" xmlns="http://www.w3.org/2000/svg">
<path d="M9.5 0C4.26279 0 0 3.88602 0 8.66261C0 11.0821 1.08571 13.3511 3.00336 14.9833C2.394 16.0441 1.54986 17.2128 0.515714 17.5C0.188643 17.5912 -0.0298571 17.9377 0.00407143 18.3131C0.0366429 18.69 0.3135 18.9802 0.650071 18.997C0.666357 18.997 0.726071 19 0.822429 19C1.52679 19 4.23429 18.8739 7.3055 17.0897C8.00579 17.2462 8.74271 17.3252 9.5 17.3252C14.7372 17.3252 19 13.4392 19 8.66261C19 3.88602 14.7372 0 9.5 0ZM9.5 15.8055C8.75357 15.8055 8.03293 15.7188 7.35571 15.5471C7.19693 15.5061 7.02864 15.5319 6.88343 15.6201C5.56971 16.4134 4.31164 16.8693 3.2775 17.1307C3.75657 16.5046 4.15693 15.8055 4.49757 15.1596C4.68214 14.81 4.58714 14.3602 4.2845 14.1383C2.42386 12.7736 1.35714 10.7781 1.35714 8.66261C1.35714 4.7234 5.00921 1.51976 9.5 1.51976C13.9908 1.51976 17.6429 4.7234 17.6429 8.66261C17.6429 12.6003 13.9908 15.8055 9.5 15.8055Z" fill="#444444"/>
</svg>
