<svg width="25" height="24" viewBox="0 0 25 24" fill="none" xmlns="http://www.w3.org/2000/svg">
<path d="M14.7027 19.4882C13.3352 20.8441 11.5351 21.5882 9.60271 21.5882C8.97926 21.5882 8.35465 21.5161 7.74293 21.348L5.45072 23.6519C5.22221 23.8681 4.9222 23.9999 4.59876 23.9999C4.27415 23.9999 3.97415 23.8681 3.7468 23.6519L0.350686 20.2558C-0.116895 19.7882 -0.116895 19.02 0.350686 18.5518L2.65461 16.2596C1.99484 13.7881 2.69094 11.1356 4.51439 9.29983C6.51831 7.30763 9.60271 6.67188 12.2312 7.692C12.3508 7.74005 12.4469 7.7881 12.543 7.88361L8.4027 12.2038L11.7988 15.5999L16.1184 11.4596C16.2145 11.5557 16.2625 11.6518 16.3106 11.7719C17.3547 14.4356 16.7184 17.472 14.7027 19.4882Z" fill="url(#paint0_linear_2_465)"/>
<path d="M22.8034 4.80121H22.6335C22.5198 4.36527 22.3475 3.95686 22.1237 3.57835L22.2467 3.45588C22.7155 2.98713 22.7155 2.22775 22.2467 1.759C21.778 1.29024 21.0186 1.29024 20.5498 1.759L20.428 1.88087C20.0483 1.65704 19.6393 1.4836 19.2033 1.37052V1.20001C19.2033 0.537309 18.6666 0 18.0033 0C17.3401 0 16.8033 0.537309 16.8033 1.20001V1.37052C16.3674 1.4836 15.9584 1.65646 15.5799 1.88029L15.458 1.75783C14.9893 1.28907 14.2299 1.28907 13.7611 1.75783C13.2924 2.22658 13.2924 2.98596 13.7611 3.45471L13.883 3.57717C13.6603 3.95569 13.4869 4.36409 13.3732 4.80003H13.2033C12.54 4.80003 12.0033 5.33734 12.0033 6.00004C12.0033 6.66274 12.54 7.20005 13.2033 7.20005H13.3732C13.4869 7.63599 13.6603 8.04439 13.883 8.42291L13.7611 8.54537C13.2924 9.01413 13.2924 9.77351 13.7611 10.2423C13.9955 10.4766 14.3025 10.5938 14.6096 10.5938C14.9166 10.5938 15.2236 10.4766 15.458 10.2423L15.5799 10.1198C15.9584 10.3436 16.3674 10.5165 16.8033 10.6296V10.8001C16.8033 11.4628 17.3401 12.0001 18.0033 12.0001C18.6666 12.0001 19.2033 11.4628 19.2033 10.8001V10.6296C19.6393 10.5165 20.0471 10.3436 20.4256 10.1204L20.5487 10.2434C20.783 10.4778 21.0901 10.595 21.3971 10.595C21.7041 10.595 22.0112 10.4778 22.2456 10.2434C22.7143 9.77468 22.7143 9.0153 22.2456 8.54655L22.1225 8.42408C22.3463 8.04557 22.5198 7.63716 22.6323 7.20122H22.8034C23.4667 7.20122 24.0034 6.66392 24.0034 6.00121C24.0034 5.33851 23.4667 4.80121 22.8034 4.80121ZM18.0033 8.40006C16.6803 8.40006 15.6033 7.32369 15.6033 6.00004C15.6033 4.6764 16.6803 3.60003 18.0033 3.60003C19.3264 3.60003 20.4034 4.6764 20.4034 6.00004C20.4034 7.32369 19.3264 8.40006 18.0033 8.40006Z" fill="url(#paint1_linear_2_465)"/>
<defs>
<linearGradient id="paint0_linear_2_465" x1="0.000236642" y1="15.6059" x2="16.8064" y2="15.6059" gradientUnits="userSpaceOnUse">
<stop stop-color="#BBDEFB"/>
<stop offset="1" stop-color="#64B5F6"/>
</linearGradient>
<linearGradient id="paint1_linear_2_465" x1="12.0033" y1="6.00004" x2="24.0034" y2="6.00004" gradientUnits="userSpaceOnUse">
<stop stop-color="#42A5F5"/>
<stop offset="1" stop-color="#1E88E5"/>
</linearGradient>
</defs>
</svg>
