<svg width="20" height="18" viewBox="0 0 20 18" fill="none" xmlns="http://www.w3.org/2000/svg">
<path d="M17.1041 0H2.39599C1.07486 0 0 1.00902 0 2.25076C0 3.49098 1.07486 4.5 2.39599 4.5H17.104C18.4251 4.5 19.5 3.49098 19.5 2.25076C19.5001 1.00897 18.4252 0 17.1041 0Z" fill="#444444"/>
<path d="M17.1041 6.75H2.39599C1.07486 6.75 0 7.75902 0 9.00076C0 10.241 1.07486 11.25 2.39599 11.25H17.104C18.4251 11.25 19.5 10.241 19.5 9.00076C19.5001 7.75897 18.4252 6.75 17.1041 6.75Z" fill="#444444"/>
<path d="M11.8413 13.5H1.65876C0.744132 13.5 0 14.509 0 15.7508C0 16.991 0.744132 18 1.65876 18H11.8412C12.7559 18 13.5 16.991 13.5 15.7508C13.5 14.509 12.7559 13.5 11.8413 13.5Z" fill="#444444"/>
</svg>
