<svg width="20" height="20" viewBox="0 0 20 20" fill="none" xmlns="http://www.w3.org/2000/svg">
<path d="M15.5441 19.0673L10 15.598L4.45589 19.0673C4.25449 19.1949 3.99468 19.1852 3.80074 19.0444C3.60734 18.9042 3.51863 18.6605 3.57699 18.4287L5.16312 12.0835L0.209524 7.88358C0.0263987 7.73022 -0.0451248 7.48073 0.0287034 7.25358C0.102532 7.02585 0.307375 6.8662 0.545422 6.8496L7.01082 6.39811L9.45641 0.332168C9.63609 -0.110723 10.3639 -0.110723 10.5436 0.332168L12.9892 6.39811L19.4546 6.8496C19.6926 6.8662 19.8975 7.02585 19.9713 7.25358C20.0451 7.48073 19.9736 7.73022 19.7905 7.88358L14.8368 12.0836L16.423 18.4288C16.4813 18.6605 16.3927 18.9043 16.1992 19.0445C16.0013 19.1882 15.7422 19.1915 15.5441 19.0673Z" fill="#FBE335"/>
</svg>
