<svg width="32" height="32" viewBox="0 0 32 32" fill="none" xmlns="http://www.w3.org/2000/svg">
<path d="M29.855 8.73281L32 0.03125L23.2046 2.06134L15.9626 10.7008L8.70093 2.08164L0 0.0349193L2.04639 8.74969L11.1484 16.4439L9.27417 18.6797L8.00977 17.4129L6.6853 18.7402L8.00977 20.0672L3.51465 24.5711C2.63599 24.6264 1.77319 24.9889 1.10303 25.6604C-0.357666 27.1237 -0.357666 29.5051 1.10303 30.9686C2.56372 32.4322 4.94043 32.4324 6.40112 30.9686C7.07104 30.2974 7.43286 29.4329 7.48828 28.5523L11.9834 24.0484L13.3079 25.3754L14.6323 24.0484L13.3638 22.7773L15.9858 20.5442L18.6152 22.7783L17.3477 24.0484L18.6721 25.3754L19.9966 24.0484L24.4897 28.5503C24.5459 29.464 24.927 30.3157 25.5789 30.9686C27.0427 32.4356 29.4126 32.4358 30.877 30.9686C32.3408 29.5019 32.3413 27.1274 30.877 25.6602C30.2251 25.0073 29.3752 24.6252 28.4631 24.5689L23.9702 20.067L25.2947 18.7399L23.9702 17.4129L22.7029 18.6824L20.8069 16.4385L29.855 8.73281ZM23.9702 22.7213L22.6458 24.0486L21.321 22.7216L22.6458 21.3943L23.9702 22.7213ZM25 26.4075L23.9702 25.3757L25.2947 24.0484L26.3245 25.0802C26.0559 25.2394 25.8054 25.4334 25.5789 25.6604C25.3523 25.8872 25.1589 26.1384 25 26.4075ZM29.5522 29.6416C28.8203 30.3749 27.6355 30.3752 26.9033 29.6416C26.1714 28.9082 26.1714 27.7211 26.9033 26.9875C27.6355 26.2541 28.8203 26.2538 29.5522 26.9875C30.2844 27.7211 30.2844 28.908 29.5522 29.6416ZM3.72778 7.71569L2.51587 2.55473L7.66943 3.76682L14.74 12.1592L12.3533 15.0068L3.72778 7.71569ZM6.40112 25.6604C6.17261 25.4312 5.92163 25.2382 5.65503 25.0809L6.6853 24.0484L8.01001 25.3757L6.97974 26.408C6.82251 26.1408 6.62964 25.8894 6.40112 25.6604ZM8.00977 22.7213L9.33423 21.3943L10.6589 22.7213L9.33447 24.0484L8.00977 22.7213ZM5.07666 29.6416C4.34644 30.3732 3.15796 30.3732 2.42749 29.6416C1.69727 28.9099 1.69727 27.7191 2.42749 26.9875C3.15796 26.2556 4.34619 26.2556 5.07666 26.9875C5.80688 27.7191 5.80688 28.9099 5.07666 29.6416ZM10.6038 20.0119L24.2358 3.74945L29.4507 2.54568L28.1814 7.6949L12.0349 21.4459L10.6038 20.0119ZM21.3738 20.0144L19.9443 21.4466L17.4321 19.3126L19.3796 17.654L21.3738 20.0144Z" fill="#0078FF"/>
</svg>
