<svg width="20" height="20" viewBox="0 0 20 20" fill="none" xmlns="http://www.w3.org/2000/svg">
<path fill-rule="evenodd" clip-rule="evenodd" d="M17.8313 0.0872859C19.1177 -0.341503 20.3415 0.882303 19.9127 2.16868L14.3453 18.8709C13.8227 20.4386 11.5862 20.3417 11.1568 18.7796C10.7674 17.3627 10.2676 15.6324 9.77431 14.1683C9.52724 13.4349 9.28626 12.7818 9.06568 12.2734C8.95527 12.019 8.85473 11.8118 8.76604 11.654C8.72202 11.5755 8.68401 11.5149 8.6525 11.4698C8.63695 11.4476 8.62428 11.4309 8.61449 11.419C8.60972 11.413 8.60593 11.4087 8.60322 11.4056L8.60009 11.4022L8.59927 11.4014C8.59927 11.4014 8.59318 11.3954 8.58109 11.3855C8.56907 11.3757 8.55237 11.363 8.53016 11.3475C8.48507 11.316 8.42444 11.278 8.34603 11.2339C8.18815 11.1452 7.98098 11.0447 7.72659 10.9343C7.21813 10.7137 6.56504 10.4727 5.83177 10.2257C4.3676 9.73235 2.63729 9.2327 1.22037 8.84321C-0.3417 8.41382 -0.438635 6.17727 1.12911 5.65467L17.8313 0.0872859ZM12.7842 18.3506L18.3516 1.64833L1.64946 7.21574L1.64702 7.21656C1.64616 7.22076 1.64555 7.22635 1.64575 7.23277C1.64599 7.24067 1.64739 7.24758 1.64905 7.25252L1.64972 7.25441C1.64972 7.25441 1.65366 7.25581 1.65649 7.25655C3.08386 7.64892 4.84907 8.15819 6.35714 8.66632C7.11003 8.91997 7.81224 9.17782 8.38149 9.42481C8.66591 9.54822 8.9282 9.6736 9.15207 9.7994C9.36532 9.91919 9.58928 10.0642 9.76246 10.2375C9.93573 10.4108 10.0808 10.6347 10.2007 10.848C10.3264 11.0718 10.4518 11.3341 10.5752 11.6185C10.8222 12.1877 11.08 12.89 11.3337 13.6428C11.8418 15.1509 12.3511 16.9161 12.7434 18.3435C12.7442 18.3464 12.7456 18.3503 12.7456 18.3503L12.7475 18.351C12.7525 18.3526 12.7593 18.354 12.7672 18.3543C12.7736 18.3545 12.7792 18.3539 12.7834 18.353L12.7842 18.3506Z" fill="#444444"/>
</svg>
