<svg width="16" height="5" viewBox="0 0 16 5" fill="none" xmlns="http://www.w3.org/2000/svg">
<path d="M10 2.7059C10 3.73742 9.10461 4.57355 8 4.57355C6.89539 4.57355 6 3.73742 6 2.7059C6 1.67439 6.89539 0.838257 8 0.838257C9.10461 0.838257 10 1.67439 10 2.7059Z" fill="#9F9F9F"/>
<path d="M4 2.7059C4 3.73742 3.10461 4.57355 2 4.57355C0.895386 4.57355 0 3.73742 0 2.7059C0 1.67439 0.895386 0.838257 2 0.838257C3.10461 0.838257 4 1.67439 4 2.7059Z" fill="#9F9F9F"/>
<path d="M16 2.7059C16 3.73742 15.1046 4.57355 14 4.57355C12.8954 4.57355 12 3.73742 12 2.7059C12 1.67439 12.8954 0.838257 14 0.838257C15.1046 0.838257 16 1.67439 16 2.7059Z" fill="#9F9F9F"/>
</svg>
