<svg width="64" height="64" viewBox="0 0 64 64" fill="none" xmlns="http://www.w3.org/2000/svg">
<rect width="64" height="64" rx="32" fill="#EEF6FF"/>
<path d="M45.1045 22.2667H40.5243L39.9909 20.6667C39.7339 19.8898 39.2383 19.2138 38.5746 18.735C37.911 18.2562 37.1132 17.999 36.2949 18H29.7051C28.887 17.9994 28.0895 18.2568 27.4261 18.7355C26.7628 19.2143 26.2673 19.89 26.0101 20.6667L25.4757 22.2667H20.8955C19.8627 22.2678 18.8725 22.6786 18.1422 23.4089C17.4119 24.1392 17.0011 25.1293 17 26.1621V41.8421C17.0023 42.8742 17.4135 43.8633 18.1437 44.5926C18.8739 45.322 19.8634 45.7322 20.8955 45.7333H45.1088C46.1409 45.7311 47.1299 45.3198 47.8593 44.5896C48.5887 43.8595 48.9989 42.8699 49 41.8379V26.1579C48.9977 25.1258 48.5865 24.1367 47.8563 23.4074C47.1261 22.678 46.1366 22.2678 45.1045 22.2667ZM46.8667 41.8379C46.8661 42.305 46.6803 42.7529 46.3499 43.0833C46.0196 43.4136 45.5717 43.5994 45.1045 43.6H20.8955C20.4283 43.5994 19.9804 43.4136 19.6501 43.0833C19.3197 42.7529 19.1339 42.305 19.1333 41.8379V26.1579C19.135 25.6914 19.3214 25.2447 19.6516 24.9152C19.9818 24.5858 20.429 24.4006 20.8955 24.4H26.2448C26.4686 24.3998 26.6866 24.3293 26.8681 24.1984C27.0496 24.0674 27.1853 23.8827 27.256 23.6704L28.0336 21.3376C28.1504 20.9867 28.3747 20.6815 28.6747 20.4654C28.9748 20.2492 29.3353 20.133 29.7051 20.1333H36.2949C36.6649 20.1329 37.0256 20.2492 37.3257 20.4656C37.6257 20.682 37.85 20.9875 37.9664 21.3387L38.744 23.6704C38.8147 23.8827 38.9504 24.0674 39.1319 24.1984C39.3134 24.3293 39.5314 24.3998 39.7552 24.4H45.1045C45.5717 24.4006 46.0196 24.5864 46.3499 24.9167C46.6803 25.2471 46.8661 25.695 46.8667 26.1621V41.8379Z" fill="#3F99FE"/>
<path d="M33 25.4666C31.4178 25.4666 29.871 25.9357 28.5554 26.8148C27.2398 27.6938 26.2145 28.9433 25.609 30.4051C25.0035 31.8669 24.845 33.4754 25.1537 35.0273C25.4624 36.5791 26.2243 38.0046 27.3431 39.1234C28.462 40.2422 29.8874 41.0042 31.4393 41.3128C32.9911 41.6215 34.5997 41.4631 36.0615 40.8576C37.5233 40.2521 38.7727 39.2267 39.6518 37.9111C40.5308 36.5955 41 35.0488 41 33.4666C40.9977 31.3455 40.1542 29.312 38.6544 27.8122C37.1546 26.3124 35.121 25.4688 33 25.4666ZM33 39.3332C31.8397 39.3332 30.7054 38.9891 29.7407 38.3445C28.7759 37.6999 28.0239 36.7836 27.5799 35.7116C27.1359 34.6396 27.0197 33.46 27.2461 32.322C27.4724 31.184 28.0312 30.1387 28.8516 29.3182C29.6721 28.4977 30.7175 27.939 31.8555 27.7126C32.9935 27.4862 34.1731 27.6024 35.2451 28.0465C36.3171 28.4905 37.2333 29.2424 37.878 30.2072C38.5226 31.172 38.8667 32.3062 38.8667 33.4666C38.865 35.022 38.2463 36.5132 37.1465 37.613C36.0466 38.7129 34.5554 39.3315 33 39.3332Z" fill="#3F99FE"/>
<path d="M43.6666 28.6668C44.2557 28.6668 44.7333 28.1892 44.7333 27.6001C44.7333 27.011 44.2557 26.5334 43.6666 26.5334C43.0775 26.5334 42.6 27.011 42.6 27.6001C42.6 28.1892 43.0775 28.6668 43.6666 28.6668Z" fill="#3F99FE"/>
</svg>
