<svg width="14" height="16" viewBox="0 0 14 16" fill="none" xmlns="http://www.w3.org/2000/svg">
<path d="M9.18131 7.41891C10.2051 6.67225 10.8718 5.46387 10.8718 4.10256C10.8718 1.84041 9.03137 0 6.76922 0C4.50706 0 2.66666 1.84041 2.66666 4.10256C2.66666 5.46387 3.33331 6.67225 4.35713 7.41891C1.81213 8.39281 0 10.8603 0 13.7436C0 14.9878 1.01222 16 2.25641 16H11.282C12.5262 16 13.5384 14.9878 13.5384 13.7436C13.5384 10.8603 11.7263 8.39281 9.18131 7.41891ZM4.52244 4.10256C4.52244 2.51906 5.81072 1.85578 6.76922 1.85578C7.72772 1.85578 9.016 2.51906 9.016 4.10256C9.016 5.68606 7.72772 6.34937 6.76922 6.34937C5.81072 6.34937 4.52244 5.68606 4.52244 4.10256ZM10.657 14.1442H2.88141C2.31588 14.1442 1.85578 14.3091 1.85578 13.7436C1.85578 10.6896 3.71528 8.83009 6.76925 8.83009C9.82322 8.83009 11.6827 10.6896 11.6827 13.7436C11.6827 14.3091 11.2226 14.1442 10.657 14.1442Z" fill="#969696"/>
</svg>
