<svg width="21" height="24" viewBox="0 0 21 24" fill="none" xmlns="http://www.w3.org/2000/svg">
<path d="M10.4012 12.8C13.9301 12.8 16.8012 9.92888 16.8012 6.39998C16.8012 2.87109 13.9301 0 10.4012 0C6.87231 0 4.00122 2.87109 4.00122 6.39998C4.00122 9.92888 6.87231 12.8 10.4012 12.8Z" fill="url(#paint0_linear_2_479)"/>
<path d="M19.9999 24.0002C20.4417 24.0002 20.7999 23.6424 20.7999 23.2002C20.7999 19.0228 18.3167 15.2635 14.4742 13.6244C14.264 13.5338 14.0261 13.5385 13.8211 13.6361C11.6547 14.6502 9.14529 14.6502 6.97889 13.6361C6.77303 13.5385 6.53514 13.5338 6.32576 13.6244C2.4832 15.2635 0 19.0228 0 23.2002C0 23.6424 0.358202 24.0002 0.799998 24.0002H19.9999Z" fill="url(#paint1_linear_2_479)"/>
<defs>
<linearGradient id="paint0_linear_2_479" x1="4.00122" y1="6.39998" x2="16.8012" y2="6.39998" gradientUnits="userSpaceOnUse">
<stop stop-color="#BBDEFB"/>
<stop offset="1" stop-color="#64B5F6"/>
</linearGradient>
<linearGradient id="paint1_linear_2_479" x1="0" y1="18.7802" x2="20.7999" y2="18.7802" gradientUnits="userSpaceOnUse">
<stop stop-color="#42A5F5"/>
<stop offset="1" stop-color="#1E88E5"/>
</linearGradient>
</defs>
</svg>
