<svg width="48" height="48" viewBox="0 0 48 48" fill="none" xmlns="http://www.w3.org/2000/svg">
<circle cx="24" cy="24" r="24" fill="#FFE3E3"/>
<path d="M32.4861 15.5141C27.7997 10.8282 20.2015 10.8277 15.5146 15.5141C10.8282 20.2005 10.8287 27.7987 15.5146 32.4856C20.2009 37.1709 27.7992 37.1714 32.4861 32.4856C37.1719 27.7987 37.1714 20.201 32.4861 15.5141ZM25.5651 29.2173C25.5651 30.0819 24.8643 30.7826 23.9998 30.7826C23.1353 30.7826 22.4346 30.0819 22.4346 29.2173V22.9563C22.4346 22.0918 23.1353 21.3911 23.9998 21.3911C24.8643 21.3911 25.5651 22.0918 25.5651 22.9563V29.2173ZM23.9722 20.2808C23.0706 20.2808 22.4695 19.6422 22.4883 18.8538C22.4695 18.0274 23.0706 17.408 23.9904 17.408C24.9108 17.408 25.4931 18.0279 25.5124 18.8538C25.5118 19.6422 24.9113 20.2808 23.9722 20.2808Z" fill="#FF4646"/>
</svg>
